<svg version="1.1" viewBox="0.0 0.0 877.5590551181102 516.7060367454068" fill="none" stroke="none" stroke-linecap="square" stroke-miterlimit="10" xmlns:xlink="http://www.w3.org/1999/xlink" xmlns="http://www.w3.org/2000/svg"><clipPath id="p.0"><path d="m0 0l877.5591 0l0 516.70605l-877.5591 0l0 -516.70605z" clip-rule="nonzero"/></clipPath><g clip-path="url(#p.0)"><path fill="#000000" fill-opacity="0.0" d="m0 0l877.5591 0l0 516.70605l-877.5591 0z" fill-rule="evenodd"/><path fill="#cfe2f3" d="m288.0 72.0l418.04724 0l0 368.7244l-418.04724 0z" fill-rule="evenodd"/><path stroke="#000000" stroke-width="1.0" stroke-linejoin="round" stroke-linecap="butt" d="m288.0 72.0l418.04724 0l0 368.7244l-418.04724 0z" fill-rule="evenodd"/><path fill="#cfe2f3" d="m496.0 158.55118l32.0 0l0 80.0l-32.0 0z" fill-rule="evenodd"/><path stroke="#000000" stroke-width="1.0" stroke-linejoin="round" stroke-linecap="butt" d="m496.0 158.55118l32.0 0l0 80.0l-32.0 0z" fill-rule="evenodd"/><path fill="#cfe2f3" d="m504.0 174.55118l0 0c0 -4.418274 3.581726 -8.0 8.0 -8.0l0 0c2.121704 0 4.156555 0.842865 5.6568604 2.343155c1.5003052 1.5002899 2.3431396 3.5351105 2.3431396 5.656845l0 0c0 4.418274 -3.581726 8.0 -8.0 8.0l0 0c-4.418274 0 -8.0 -3.581726 -8.0 -8.0z" fill-rule="evenodd"/><path stroke="#000000" stroke-width="1.0" stroke-linejoin="round" stroke-linecap="butt" d="m504.0 174.55118l0 0c0 -4.418274 3.581726 -8.0 8.0 -8.0l0 0c2.121704 0 4.156555 0.842865 5.6568604 2.343155c1.5003052 1.5002899 2.3431396 3.5351105 2.3431396 5.656845l0 0c0 4.418274 -3.581726 8.0 -8.0 8.0l0 0c-4.418274 0 -8.0 -3.581726 -8.0 -8.0z" fill-rule="evenodd"/><path fill="#cfe2f3" d="m504.0 222.55118l0 0c0 -4.418274 3.581726 -8.0 8.0 -8.0l0 0c2.121704 0 4.156555 0.842865 5.6568604 2.343155c1.5003052 1.5002899 2.3431396 3.5351105 2.3431396 5.656845l0 0c0 4.418274 -3.581726 8.0 -8.0 8.0l0 0c-4.418274 0 -8.0 -3.581726 -8.0 -8.0z" fill-rule="evenodd"/><path stroke="#000000" stroke-width="1.0" stroke-linejoin="round" stroke-linecap="butt" d="m504.0 222.55118l0 0c0 -4.418274 3.581726 -8.0 8.0 -8.0l0 0c2.121704 0 4.156555 0.842865 5.6568604 2.343155c1.5003052 1.5002899 2.3431396 3.5351105 2.3431396 5.656845l0 0c0 4.418274 -3.581726 8.0 -8.0 8.0l0 0c-4.418274 0 -8.0 -3.581726 -8.0 -8.0z" fill-rule="evenodd"/><path fill="#000000" fill-opacity="0.0" d="m488.0 182.55118l48.0 0l0 32.0l-48.0 0z" fill-rule="evenodd"/><path fill="#000000" d="m501.3716 201.97118l1.71875 -0.140625q0.1875 1.25 0.875 1.890625q0.703125 0.625 1.6875 0.625q1.1875 0 2.0 -0.890625q0.828125 -0.890625 0.828125 -2.359375q0 -1.40625 -0.796875 -2.21875q-0.78125 -0.8125 -2.0625 -0.8125q-0.78125 0 -1.421875 0.359375q-0.640625 0.359375 -1.0 0.9375l-1.546875 -0.203125l1.296875 -6.859375l6.640625 0l0 1.5625l-5.328125 0l-0.71875 3.59375q1.203125 -0.84375 2.515625 -0.84375q1.75 0 2.953125 1.21875q1.203125 1.203125 1.203125 3.109375q0 1.8125 -1.046875 3.140625q-1.296875 1.625 -3.515625 1.625q-1.8125 0 -2.96875 -1.015625q-1.15625 -1.03125 -1.3125 -2.71875zm14.844452 3.5l-5.171875 -13.359375l1.921875 0l3.46875 9.703125q0.421875 1.171875 0.703125 2.1875q0.3125 -1.09375 0.71875 -2.1875l3.609375 -9.703125l1.796875 0l-5.234375 13.359375l-1.8125 0z" fill-rule="nonzero"/><path fill="#cfe2f3" d="m528.0 158.55118l32.0 0l0 80.0l-32.0 0z" fill-rule="evenodd"/><path stroke="#000000" stroke-width="1.0" stroke-linejoin="round" stroke-linecap="butt" d="m528.0 158.55118l32.0 0l0 80.0l-32.0 0z" fill-rule="evenodd"/><path fill="#cfe2f3" d="m536.0 174.55118l0 0c0 -4.418274 3.581726 -8.0 8.0 -8.0l0 0c2.121704 0 4.156555 0.842865 5.6568604 2.343155c1.5003052 1.5002899 2.3431396 3.5351105 2.3431396 5.656845l0 0c0 4.418274 -3.581726 8.0 -8.0 8.0l0 0c-4.418274 0 -8.0 -3.581726 -8.0 -8.0z" fill-rule="evenodd"/><path stroke="#000000" stroke-width="1.0" stroke-linejoin="round" stroke-linecap="butt" d="m536.0 174.55118l0 0c0 -4.418274 3.581726 -8.0 8.0 -8.0l0 0c2.121704 0 4.156555 0.842865 5.6568604 2.343155c1.5003052 1.5002899 2.3431396 3.5351105 2.3431396 5.656845l0 0c0 4.418274 -3.581726 8.0 -8.0 8.0l0 0c-4.418274 0 -8.0 -3.581726 -8.0 -8.0z" fill-rule="evenodd"/><path fill="#cfe2f3" d="m536.0 222.55118l0 0c0 -4.418274 3.581726 -8.0 8.0 -8.0l0 0c2.121704 0 4.156555 0.842865 5.6568604 2.343155c1.5003052 1.5002899 2.3431396 3.5351105 2.3431396 5.656845l0 0c0 4.418274 -3.581726 8.0 -8.0 8.0l0 0c-4.418274 0 -8.0 -3.581726 -8.0 -8.0z" fill-rule="evenodd"/><path stroke="#000000" stroke-width="1.0" stroke-linejoin="round" stroke-linecap="butt" d="m536.0 222.55118l0 0c0 -4.418274 3.581726 -8.0 8.0 -8.0l0 0c2.121704 0 4.156555 0.842865 5.6568604 2.343155c1.5003052 1.5002899 2.3431396 3.5351105 2.3431396 5.656845l0 0c0 4.418274 -3.581726 8.0 -8.0 8.0l0 0c-4.418274 0 -8.0 -3.581726 -8.0 -8.0z" fill-rule="evenodd"/><path fill="#000000" fill-opacity="0.0" d="m520.0 182.55118l48.0 0l0 32.0l-48.0 0z" fill-rule="evenodd"/><path fill="#000000" d="m533.3716 201.97118l1.71875 -0.140625q0.1875 1.25 0.875 1.890625q0.703125 0.625 1.6875 0.625q1.1875 0 2.0 -0.890625q0.828125 -0.890625 0.828125 -2.359375q0 -1.40625 -0.796875 -2.21875q-0.78125 -0.8125 -2.0625 -0.8125q-0.78125 0 -1.421875 0.359375q-0.640625 0.359375 -1.0 0.9375l-1.546875 -0.203125l1.296875 -6.859375l6.640625 0l0 1.5625l-5.328125 0l-0.71875 3.59375q1.203125 -0.84375 2.515625 -0.84375q1.75 0 2.953125 1.21875q1.203125 1.203125 1.203125 3.109375q0 1.8125 -1.046875 3.140625q-1.296875 1.625 -3.515625 1.625q-1.8125 0 -2.96875 -1.015625q-1.15625 -1.03125 -1.3125 -2.71875zm14.844482 3.5l-5.171875 -13.359375l1.921875 0l3.46875 9.703125q0.421875 1.171875 0.703125 2.1875q0.3125 -1.09375 0.71875 -2.1875l3.609375 -9.703125l1.796875 0l-5.234375 13.359375l-1.8125 0z" fill-rule="nonzero"/><path fill="#cfe2f3" d="m560.0 158.55118l32.0 0l0 80.0l-32.0 0z" fill-rule="evenodd"/><path stroke="#000000" stroke-width="1.0" stroke-linejoin="round" stroke-linecap="butt" d="m560.0 158.55118l32.0 0l0 80.0l-32.0 0z" fill-rule="evenodd"/><path fill="#cfe2f3" d="m568.0 174.55118l0 0c0 -4.418274 3.581726 -8.0 8.0 -8.0l0 0c2.121704 0 4.156555 0.842865 5.6568604 2.343155c1.5003052 1.5002899 2.3431396 3.5351105 2.3431396 5.656845l0 0c0 4.418274 -3.581726 8.0 -8.0 8.0l0 0c-4.418274 0 -8.0 -3.581726 -8.0 -8.0z" fill-rule="evenodd"/><path stroke="#000000" stroke-width="1.0" stroke-linejoin="round" stroke-linecap="butt" d="m568.0 174.55118l0 0c0 -4.418274 3.581726 -8.0 8.0 -8.0l0 0c2.121704 0 4.156555 0.842865 5.6568604 2.343155c1.5003052 1.5002899 2.3431396 3.5351105 2.3431396 5.656845l0 0c0 4.418274 -3.581726 8.0 -8.0 8.0l0 0c-4.418274 0 -8.0 -3.581726 -8.0 -8.0z" fill-rule="evenodd"/><path fill="#cfe2f3" d="m568.0 222.55118l0 0c0 -4.418274 3.581726 -8.0 8.0 -8.0l0 0c2.121704 0 4.156555 0.842865 5.6568604 2.343155c1.5003052 1.5002899 2.3431396 3.5351105 2.3431396 5.656845l0 0c0 4.418274 -3.581726 8.0 -8.0 8.0l0 0c-4.418274 0 -8.0 -3.581726 -8.0 -8.0z" fill-rule="evenodd"/><path stroke="#000000" stroke-width="1.0" stroke-linejoin="round" stroke-linecap="butt" d="m568.0 222.55118l0 0c0 -4.418274 3.581726 -8.0 8.0 -8.0l0 0c2.121704 0 4.156555 0.842865 5.6568604 2.343155c1.5003052 1.5002899 2.3431396 3.5351105 2.3431396 5.656845l0 0c0 4.418274 -3.581726 8.0 -8.0 8.0l0 0c-4.418274 0 -8.0 -3.581726 -8.0 -8.0z" fill-rule="evenodd"/><path fill="#000000" fill-opacity="0.0" d="m552.0 182.55118l48.0 0l0 32.0l-48.0 0z" fill-rule="evenodd"/><path fill="#000000" d="m570.62195 201.1743l1.65625 -0.140625q0.125 1.0 0.546875 1.640625q0.4375 0.640625 1.34375 1.046875q0.921875 0.390625 2.0625 0.390625q1.0 0 1.78125 -0.296875q0.78125 -0.296875 1.15625 -0.8125q0.375 -0.53125 0.375 -1.15625q0 -0.625 -0.375 -1.09375q-0.359375 -0.46875 -1.1875 -0.796875q-0.546875 -0.203125 -2.390625 -0.640625q-1.828125 -0.453125 -2.5625 -0.84375q-0.96875 -0.5 -1.4375 -1.234375q-0.46875 -0.75 -0.46875 -1.671875q0 -1.0 0.578125 -1.875q0.578125 -0.890625 1.671875 -1.34375q1.109375 -0.453125 2.453125 -0.453125q1.484375 0 2.609375 0.484375q1.140625 0.46875 1.75 1.40625q0.609375 0.921875 0.65625 2.09375l-1.6875 0.125q-0.140625 -1.265625 -0.9375 -1.90625q-0.78125 -0.65625 -2.3125 -0.65625q-1.609375 0 -2.34375 0.59375q-0.734375 0.59375 -0.734375 1.421875q0 0.71875 0.53125 1.171875q0.5 0.46875 2.65625 0.96875q2.15625 0.484375 2.953125 0.84375q1.171875 0.53125 1.71875 1.359375q0.5625 0.828125 0.5625 1.90625q0 1.0625 -0.609375 2.015625q-0.609375 0.9375 -1.75 1.46875q-1.140625 0.515625 -2.578125 0.515625q-1.8125 0 -3.046875 -0.53125q-1.21875 -0.53125 -1.921875 -1.59375q-0.6875 -1.0625 -0.71875 -2.40625z" fill-rule="nonzero"/><path fill="#cfe2f3" d="m592.0 158.55118l32.0 0l0 80.0l-32.0 0z" fill-rule="evenodd"/><path stroke="#000000" stroke-width="1.0" stroke-linejoin="round" stroke-linecap="butt" d="m592.0 158.55118l32.0 0l0 80.0l-32.0 0z" fill-rule="evenodd"/><path fill="#cfe2f3" d="m600.0 174.55118l0 0c0 -4.418274 3.581726 -8.0 8.0 -8.0l0 0c2.121704 0 4.156555 0.842865 5.6568604 2.343155c1.5003052 1.5002899 2.3431396 3.5351105 2.3431396 5.656845l0 0c0 4.418274 -3.581726 8.0 -8.0 8.0l0 0c-4.418274 0 -8.0 -3.581726 -8.0 -8.0z" fill-rule="evenodd"/><path stroke="#000000" stroke-width="1.0" stroke-linejoin="round" stroke-linecap="butt" d="m600.0 174.55118l0 0c0 -4.418274 3.581726 -8.0 8.0 -8.0l0 0c2.121704 0 4.156555 0.842865 5.6568604 2.343155c1.5003052 1.5002899 2.3431396 3.5351105 2.3431396 5.656845l0 0c0 4.418274 -3.581726 8.0 -8.0 8.0l0 0c-4.418274 0 -8.0 -3.581726 -8.0 -8.0z" fill-rule="evenodd"/><path fill="#cfe2f3" d="m600.0 222.55118l0 0c0 -4.418274 3.581726 -8.0 8.0 -8.0l0 0c2.121704 0 4.156555 0.842865 5.6568604 2.343155c1.5003052 1.5002899 2.3431396 3.5351105 2.3431396 5.656845l0 0c0 4.418274 -3.581726 8.0 -8.0 8.0l0 0c-4.418274 0 -8.0 -3.581726 -8.0 -8.0z" fill-rule="evenodd"/><path stroke="#000000" stroke-width="1.0" stroke-linejoin="round" stroke-linecap="butt" d="m600.0 222.55118l0 0c0 -4.418274 3.581726 -8.0 8.0 -8.0l0 0c2.121704 0 4.156555 0.842865 5.6568604 2.343155c1.5003052 1.5002899 2.3431396 3.5351105 2.3431396 5.656845l0 0c0 4.418274 -3.581726 8.0 -8.0 8.0l0 0c-4.418274 0 -8.0 -3.581726 -8.0 -8.0z" fill-rule="evenodd"/><path fill="#000000" fill-opacity="0.0" d="m584.0 182.55118l48.0 0l0 32.0l-48.0 0z" fill-rule="evenodd"/><path fill="#000000" d="m602.62195 201.1743l1.65625 -0.140625q0.125 1.0 0.546875 1.640625q0.4375 0.640625 1.34375 1.046875q0.921875 0.390625 2.0625 0.390625q1.0 0 1.78125 -0.296875q0.78125 -0.296875 1.15625 -0.8125q0.375 -0.53125 0.375 -1.15625q0 -0.625 -0.375 -1.09375q-0.359375 -0.46875 -1.1875 -0.796875q-0.546875 -0.203125 -2.390625 -0.640625q-1.828125 -0.453125 -2.5625 -0.84375q-0.96875 -0.5 -1.4375 -1.234375q-0.46875 -0.75 -0.46875 -1.671875q0 -1.0 0.578125 -1.875q0.578125 -0.890625 1.671875 -1.34375q1.109375 -0.453125 2.453125 -0.453125q1.484375 0 2.609375 0.484375q1.140625 0.46875 1.75 1.40625q0.609375 0.921875 0.65625 2.09375l-1.6875 0.125q-0.140625 -1.265625 -0.9375 -1.90625q-0.78125 -0.65625 -2.3125 -0.65625q-1.609375 0 -2.34375 0.59375q-0.734375 0.59375 -0.734375 1.421875q0 0.71875 0.53125 1.171875q0.5 0.46875 2.65625 0.96875q2.15625 0.484375 2.953125 0.84375q1.171875 0.53125 1.71875 1.359375q0.5625 0.828125 0.5625 1.90625q0 1.0625 -0.609375 2.015625q-0.609375 0.9375 -1.75 1.46875q-1.140625 0.515625 -2.578125 0.515625q-1.8125 0 -3.046875 -0.53125q-1.21875 -0.53125 -1.921875 -1.59375q-0.6875 -1.0625 -0.71875 -2.40625z" fill-rule="nonzero"/><path fill="#cfe2f3" d="m624.0 158.55118l32.0 0l0 80.0l-32.0 0z" fill-rule="evenodd"/><path stroke="#000000" stroke-width="1.0" stroke-linejoin="round" stroke-linecap="butt" d="m624.0 158.55118l32.0 0l0 80.0l-32.0 0z" fill-rule="evenodd"/><path fill="#cfe2f3" d="m632.0 174.55118l0 0c0 -4.418274 3.581726 -8.0 8.0 -8.0l0 0c2.121704 0 4.156555 0.842865 5.6568604 2.343155c1.5003052 1.5002899 2.3431396 3.5351105 2.3431396 5.656845l0 0c0 4.418274 -3.581726 8.0 -8.0 8.0l0 0c-4.418274 0 -8.0 -3.581726 -8.0 -8.0z" fill-rule="evenodd"/><path stroke="#000000" stroke-width="1.0" stroke-linejoin="round" stroke-linecap="butt" d="m632.0 174.55118l0 0c0 -4.418274 3.581726 -8.0 8.0 -8.0l0 0c2.121704 0 4.156555 0.842865 5.6568604 2.343155c1.5003052 1.5002899 2.3431396 3.5351105 2.3431396 5.656845l0 0c0 4.418274 -3.581726 8.0 -8.0 8.0l0 0c-4.418274 0 -8.0 -3.581726 -8.0 -8.0z" fill-rule="evenodd"/><path fill="#cfe2f3" d="m632.0 222.55118l0 0c0 -4.418274 3.581726 -8.0 8.0 -8.0l0 0c2.121704 0 4.156555 0.842865 5.6568604 2.343155c1.5003052 1.5002899 2.3431396 3.5351105 2.3431396 5.656845l0 0c0 4.418274 -3.581726 8.0 -8.0 8.0l0 0c-4.418274 0 -8.0 -3.581726 -8.0 -8.0z" fill-rule="evenodd"/><path stroke="#000000" stroke-width="1.0" stroke-linejoin="round" stroke-linecap="butt" d="m632.0 222.55118l0 0c0 -4.418274 3.581726 -8.0 8.0 -8.0l0 0c2.121704 0 4.156555 0.842865 5.6568604 2.343155c1.5003052 1.5002899 2.3431396 3.5351105 2.3431396 5.656845l0 0c0 4.418274 -3.581726 8.0 -8.0 8.0l0 0c-4.418274 0 -8.0 -3.581726 -8.0 -8.0z" fill-rule="evenodd"/><path fill="#000000" fill-opacity="0.0" d="m616.0 182.55118l48.0 0l0 32.0l-48.0 0z" fill-rule="evenodd"/><path fill="#000000" d="m640.43176 200.2368l0 -1.578125l5.65625 0l0 4.953125q-1.296875 1.046875 -2.6875 1.578125q-1.375 0.515625 -2.84375 0.515625q-1.96875 0 -3.578125 -0.84375q-1.609375 -0.84375 -2.421875 -2.4375q-0.8125 -1.59375 -0.8125 -3.5625q0 -1.953125 0.8125 -3.640625q0.8125 -1.6875 2.34375 -2.5q1.53125 -0.828125 3.515625 -0.828125q1.453125 0 2.625 0.46875q1.171875 0.46875 1.828125 1.3125q0.671875 0.828125 1.015625 2.171875l-1.59375 0.4375q-0.296875 -1.015625 -0.75 -1.59375q-0.4375 -0.59375 -1.265625 -0.9375q-0.828125 -0.34375 -1.84375 -0.34375q-1.203125 0 -2.09375 0.375q-0.890625 0.359375 -1.4375 0.96875q-0.53125 0.59375 -0.828125 1.3125q-0.515625 1.234375 -0.515625 2.6875q0 1.78125 0.609375 2.984375q0.625 1.203125 1.796875 1.796875q1.171875 0.578125 2.5 0.578125q1.140625 0 2.234375 -0.4375q1.09375 -0.453125 1.65625 -0.953125l0 -2.484375l-3.921875 0z" fill-rule="nonzero"/><path fill="#cfe2f3" d="m432.0 158.55118l32.0 0l0 80.0l-32.0 0z" fill-rule="evenodd"/><path stroke="#000000" stroke-width="1.0" stroke-linejoin="round" stroke-linecap="butt" d="m432.0 158.55118l32.0 0l0 80.0l-32.0 0z" fill-rule="evenodd"/><path fill="#cfe2f3" d="m440.0 174.55118l0 0c0 -4.418274 3.581726 -8.0 8.0 -8.0l0 0c2.1217346 0 4.156555 0.842865 5.6568604 2.343155c1.5002747 1.5002899 2.3431396 3.5351105 2.3431396 5.656845l0 0c0 4.418274 -3.581726 8.0 -8.0 8.0l0 0c-4.418274 0 -8.0 -3.581726 -8.0 -8.0z" fill-rule="evenodd"/><path stroke="#000000" stroke-width="1.0" stroke-linejoin="round" stroke-linecap="butt" d="m440.0 174.55118l0 0c0 -4.418274 3.581726 -8.0 8.0 -8.0l0 0c2.1217346 0 4.156555 0.842865 5.6568604 2.343155c1.5002747 1.5002899 2.3431396 3.5351105 2.3431396 5.656845l0 0c0 4.418274 -3.581726 8.0 -8.0 8.0l0 0c-4.418274 0 -8.0 -3.581726 -8.0 -8.0z" fill-rule="evenodd"/><path fill="#cfe2f3" d="m440.0 222.55118l0 0c0 -4.418274 3.581726 -8.0 8.0 -8.0l0 0c2.1217346 0 4.156555 0.842865 5.6568604 2.343155c1.5002747 1.5002899 2.3431396 3.5351105 2.3431396 5.656845l0 0c0 4.418274 -3.581726 8.0 -8.0 8.0l0 0c-4.418274 0 -8.0 -3.581726 -8.0 -8.0z" fill-rule="evenodd"/><path stroke="#000000" stroke-width="1.0" stroke-linejoin="round" stroke-linecap="butt" d="m440.0 222.55118l0 0c0 -4.418274 3.581726 -8.0 8.0 -8.0l0 0c2.1217346 0 4.156555 0.842865 5.6568604 2.343155c1.5002747 1.5002899 2.3431396 3.5351105 2.3431396 5.656845l0 0c0 4.418274 -3.581726 8.0 -8.0 8.0l0 0c-4.418274 0 -8.0 -3.581726 -8.0 -8.0z" fill-rule="evenodd"/><path fill="#000000" fill-opacity="0.0" d="m424.0 182.55118l48.0 0l0 32.0l-48.0 0z" fill-rule="evenodd"/><path fill="#000000" d="m448.4318 200.2368l0 -1.578125l5.65625 0l0 4.953125q-1.296875 1.046875 -2.6875 1.578125q-1.375 0.515625 -2.84375 0.515625q-1.96875 0 -3.578125 -0.84375q-1.609375 -0.84375 -2.421875 -2.4375q-0.8125 -1.59375 -0.8125 -3.5625q0 -1.953125 0.8125 -3.640625q0.8125 -1.6875 2.34375 -2.5q1.53125 -0.828125 3.515625 -0.828125q1.453125 0 2.625 0.46875q1.171875 0.46875 1.828125 1.3125q0.671875 0.828125 1.015625 2.171875l-1.59375 0.4375q-0.296875 -1.015625 -0.75 -1.59375q-0.4375 -0.59375 -1.265625 -0.9375q-0.828125 -0.34375 -1.84375 -0.34375q-1.203125 0 -2.09375 0.375q-0.890625 0.359375 -1.4375 0.96875q-0.53125 0.59375 -0.828125 1.3125q-0.515625 1.234375 -0.515625 2.6875q0 1.78125 0.609375 2.984375q0.625 1.203125 1.796875 1.796875q1.171875 0.578125 2.5 0.578125q1.140625 0 2.234375 -0.4375q1.09375 -0.453125 1.65625 -0.953125l0 -2.484375l-3.921875 0z" fill-rule="nonzero"/><path fill="#cfe2f3" d="m464.0 158.55118l32.0 0l0 80.0l-32.0 0z" fill-rule="evenodd"/><path stroke="#000000" stroke-width="1.0" stroke-linejoin="round" stroke-linecap="butt" d="m464.0 158.55118l32.0 0l0 80.0l-32.0 0z" fill-rule="evenodd"/><path fill="#cfe2f3" d="m472.0 174.55118l0 0c0 -4.418274 3.581726 -8.0 8.0 -8.0l0 0c2.1217346 0 4.156555 0.842865 5.6568604 2.343155c1.5002747 1.5002899 2.3431396 3.5351105 2.3431396 5.656845l0 0c0 4.418274 -3.581726 8.0 -8.0 8.0l0 0c-4.418274 0 -8.0 -3.581726 -8.0 -8.0z" fill-rule="evenodd"/><path stroke="#000000" stroke-width="1.0" stroke-linejoin="round" stroke-linecap="butt" d="m472.0 174.55118l0 0c0 -4.418274 3.581726 -8.0 8.0 -8.0l0 0c2.1217346 0 4.156555 0.842865 5.6568604 2.343155c1.5002747 1.5002899 2.3431396 3.5351105 2.3431396 5.656845l0 0c0 4.418274 -3.581726 8.0 -8.0 8.0l0 0c-4.418274 0 -8.0 -3.581726 -8.0 -8.0z" fill-rule="evenodd"/><path fill="#cfe2f3" d="m472.0 222.55118l0 0c0 -4.418274 3.581726 -8.0 8.0 -8.0l0 0c2.1217346 0 4.156555 0.842865 5.6568604 2.343155c1.5002747 1.5002899 2.3431396 3.5351105 2.3431396 5.656845l0 0c0 4.418274 -3.581726 8.0 -8.0 8.0l0 0c-4.418274 0 -8.0 -3.581726 -8.0 -8.0z" fill-rule="evenodd"/><path stroke="#000000" stroke-width="1.0" stroke-linejoin="round" stroke-linecap="butt" d="m472.0 222.55118l0 0c0 -4.418274 3.581726 -8.0 8.0 -8.0l0 0c2.1217346 0 4.156555 0.842865 5.6568604 2.343155c1.5002747 1.5002899 2.3431396 3.5351105 2.3431396 5.656845l0 0c0 4.418274 -3.581726 8.0 -8.0 8.0l0 0c-4.418274 0 -8.0 -3.581726 -8.0 -8.0z" fill-rule="evenodd"/><path fill="#000000" fill-opacity="0.0" d="m456.0 182.55118l48.0 0l0 32.0l-48.0 0z" fill-rule="evenodd"/><path fill="#000000" d="m474.62195 201.1743l1.65625 -0.140625q0.125 1.0 0.546875 1.640625q0.4375 0.640625 1.34375 1.046875q0.921875 0.390625 2.0625 0.390625q1.0 0 1.78125 -0.296875q0.78125 -0.296875 1.15625 -0.8125q0.375 -0.53125 0.375 -1.15625q0 -0.625 -0.375 -1.09375q-0.359375 -0.46875 -1.1875 -0.796875q-0.546875 -0.203125 -2.390625 -0.640625q-1.828125 -0.453125 -2.5625 -0.84375q-0.96875 -0.5 -1.4375 -1.234375q-0.46875 -0.75 -0.46875 -1.671875q0 -1.0 0.578125 -1.875q0.578125 -0.890625 1.671875 -1.34375q1.109375 -0.453125 2.453125 -0.453125q1.484375 0 2.609375 0.484375q1.140625 0.46875 1.75 1.40625q0.609375 0.921875 0.65625 2.09375l-1.6875 0.125q-0.140625 -1.265625 -0.9375 -1.90625q-0.78125 -0.65625 -2.3125 -0.65625q-1.609375 0 -2.34375 0.59375q-0.734375 0.59375 -0.734375 1.421875q0 0.71875 0.53125 1.171875q0.5 0.46875 2.65625 0.96875q2.15625 0.484375 2.953125 0.84375q1.171875 0.53125 1.71875 1.359375q0.5625 0.828125 0.5625 1.90625q0 1.0625 -0.609375 2.015625q-0.609375 0.9375 -1.75 1.46875q-1.140625 0.515625 -2.578125 0.515625q-1.8125 0 -3.046875 -0.53125q-1.21875 -0.53125 -1.921875 -1.59375q-0.6875 -1.0625 -0.71875 -2.40625z" fill-rule="nonzero"/><path fill="#cfe2f3" d="m352.0 336.0l32.0 0l0 16.0l-32.0 0z" fill-rule="evenodd"/><path stroke="#000000" stroke-width="1.0" stroke-linejoin="round" stroke-linecap="butt" d="m352.0 336.0l32.0 0l0 16.0l-32.0 0z" fill-rule="evenodd"/><path fill="#000000" fill-opacity="0.0" d="m640.0 166.55118c0 -12.499863 9.333374 -33.829666 16.000061 -24.999725c6.666687 8.829941 10.666687 47.819626 16.0 91.22427c5.333374 43.404663 12.0 91.22427 23.999939 91.22427" fill-rule="evenodd"/><path stroke="#000000" stroke-width="3.0" stroke-linejoin="round" stroke-linecap="butt" d="m640.0 166.55118c0 -12.499863 9.333374 -33.829666 16.000061 -24.999725c6.666687 8.829941 10.666687 47.819626 16.0 91.22427c5.333374 43.404663 12.0 91.22427 23.999939 91.22427" fill-rule="evenodd"/><path fill="#000000" fill-opacity="0.0" d="m640.0 166.55118c0 -12.499496 9.333374 -37.02899 16.000061 -24.999008c6.666687 12.0299835 10.666687 60.61946 16.0 115.22392c5.333374 54.60446 12.0 115.22391 23.999939 115.22391" fill-rule="evenodd"/><path stroke="#000000" stroke-width="3.0" stroke-linejoin="round" stroke-linecap="butt" d="m640.0 166.55118c0 -12.499496 9.333374 -37.02899 16.000061 -24.999008c6.666687 12.0299835 10.666687 60.61946 16.0 115.22392c5.333374 54.60446 12.0 115.22391 23.999939 115.22391" fill-rule="evenodd"/><path fill="#cfe2f3" d="m400.0 158.55118l32.0 0l0 80.0l-32.0 0z" fill-rule="evenodd"/><path stroke="#000000" stroke-width="1.0" stroke-linejoin="round" stroke-linecap="butt" d="m400.0 158.55118l32.0 0l0 80.0l-32.0 0z" fill-rule="evenodd"/><path fill="#cfe2f3" d="m408.0 174.55118l0 0c0 -4.418274 3.581726 -8.0 8.0 -8.0l0 0c2.1217346 0 4.156555 0.842865 5.6568604 2.343155c1.5002747 1.5002899 2.3431396 3.5351105 2.3431396 5.656845l0 0c0 4.418274 -3.581726 8.0 -8.0 8.0l0 0c-4.418274 0 -8.0 -3.581726 -8.0 -8.0z" fill-rule="evenodd"/><path stroke="#000000" stroke-width="1.0" stroke-linejoin="round" stroke-linecap="butt" d="m408.0 174.55118l0 0c0 -4.418274 3.581726 -8.0 8.0 -8.0l0 0c2.1217346 0 4.156555 0.842865 5.6568604 2.343155c1.5002747 1.5002899 2.3431396 3.5351105 2.3431396 5.656845l0 0c0 4.418274 -3.581726 8.0 -8.0 8.0l0 0c-4.418274 0 -8.0 -3.581726 -8.0 -8.0z" fill-rule="evenodd"/><path fill="#cfe2f3" d="m408.0 222.55118l0 0c0 -4.418274 3.581726 -8.0 8.0 -8.0l0 0c2.1217346 0 4.156555 0.842865 5.6568604 2.343155c1.5002747 1.5002899 2.3431396 3.5351105 2.3431396 5.656845l0 0c0 4.418274 -3.581726 8.0 -8.0 8.0l0 0c-4.418274 0 -8.0 -3.581726 -8.0 -8.0z" fill-rule="evenodd"/><path stroke="#000000" stroke-width="1.0" stroke-linejoin="round" stroke-linecap="butt" d="m408.0 222.55118l0 0c0 -4.418274 3.581726 -8.0 8.0 -8.0l0 0c2.1217346 0 4.156555 0.842865 5.6568604 2.343155c1.5002747 1.5002899 2.3431396 3.5351105 2.3431396 5.656845l0 0c0 4.418274 -3.581726 8.0 -8.0 8.0l0 0c-4.418274 0 -8.0 -3.581726 -8.0 -8.0z" fill-rule="evenodd"/><path fill="#000000" fill-opacity="0.0" d="m392.0 182.55118l48.0 0l0 32.0l-48.0 0z" fill-rule="evenodd"/><path fill="#000000" d="m408.4142 203.63118l-1.28125 0l0 -8.203125q-0.46875 0.4375 -1.21875 0.890625q-0.75 0.4375 -1.359375 0.65625l0 -1.25q1.078125 -0.5 1.890625 -1.21875q0.8125 -0.734375 1.140625 -1.40625l0.828125 0l0 10.53125zm10.072968 -1.234375l0 1.234375l-6.9375 0q-0.015625 -0.46875 0.15625 -0.890625q0.265625 -0.71875 0.84375 -1.40625q0.59375 -0.6875 1.6875 -1.578125q1.71875 -1.40625 2.3125 -2.21875q0.609375 -0.828125 0.609375 -1.5625q0 -0.765625 -0.5625 -1.28125q-0.546875 -0.53125 -1.421875 -0.53125q-0.921875 0 -1.484375 0.5625q-0.5625 0.5625 -0.5625 1.546875l-1.328125 -0.140625q0.140625 -1.484375 1.015625 -2.25q0.890625 -0.78125 2.390625 -0.78125q1.515625 0 2.390625 0.84375q0.875 0.828125 0.875 2.0625q0 0.640625 -0.265625 1.25q-0.25 0.59375 -0.84375 1.265625q-0.59375 0.671875 -1.984375 1.859375q-1.15625 0.96875 -1.484375 1.3125q-0.328125 0.34375 -0.546875 0.703125l5.140625 0zm4.901123 1.234375l-4.0625 -10.484375l1.5 0l2.734375 7.609375q0.328125 0.921875 0.546875 1.71875q0.25 -0.859375 0.5625 -1.71875l2.84375 -7.609375l1.40625 0l-4.109375 10.484375l-1.421875 0z" fill-rule="nonzero"/><path fill="#cfe2f3" d="m32.0 56.7264l16.0 0l0 23.273602l-16.0 0z" fill-rule="evenodd"/><path stroke="#000000" stroke-width="1.0" stroke-linejoin="round" stroke-linecap="butt" d="m32.0 56.7264l16.0 0l0 23.273602l-16.0 0z" fill-rule="evenodd"/><path fill="#cfe2f3" d="m96.0 56.7264l16.0 0l0 23.273602l-16.0 0z" fill-rule="evenodd"/><path stroke="#000000" stroke-width="1.0" stroke-linejoin="round" stroke-linecap="butt" d="m96.0 56.7264l16.0 0l0 23.273602l-16.0 0z" fill-rule="evenodd"/><path fill="#cfe2f3" d="m16.0 25.695127l0 0c0 -5.355797 4.34173 -9.697528 9.697527 -9.697528l92.60495 0c2.5719452 0 5.0385437 1.0217009 6.8571854 2.8403406c1.8186417 1.8186398 2.8403397 4.285242 2.8403397 6.8571873l0 38.78894c0 5.355797 -4.341728 9.697533 -9.697525 9.697533l-92.60495 0c-5.355797 0 -9.697527 -4.341736 -9.697527 -9.697533z" fill-rule="evenodd"/><path stroke="#000000" stroke-width="1.0" stroke-linejoin="round" stroke-linecap="butt" d="m16.0 25.695127l0 0c0 -5.355797 4.34173 -9.697528 9.697527 -9.697528l92.60495 0c2.5719452 0 5.0385437 1.0217009 6.8571854 2.8403406c1.8186417 1.8186398 2.8403397 4.285242 2.8403397 6.8571873l0 38.78894c0 5.355797 -4.341728 9.697533 -9.697525 9.697533l-92.60495 0c-5.355797 0 -9.697527 -4.341736 -9.697527 -9.697533z" fill-rule="evenodd"/><path fill="#000000" fill-opacity="0.0" d="m8.0 15.9976l128.0 0l0 34.9104l-128.0 0z" fill-rule="evenodd"/><path fill="#000000" d="m24.618073 38.620724l1.65625 -0.140625q0.125 1.0 0.546875 1.640625q0.4375 0.640625 1.34375 1.046875q0.921875 0.390625 2.0625 0.390625q1.0 0 1.78125 -0.296875q0.78125 -0.296875 1.15625 -0.8125q0.375 -0.53125 0.375 -1.15625q0 -0.625 -0.375 -1.09375q-0.359375 -0.46875 -1.1875 -0.796875q-0.546875 -0.203125 -2.390625 -0.640625q-1.828125 -0.453125 -2.5625 -0.84375q-0.96875 -0.5 -1.4375 -1.234375q-0.46875 -0.75 -0.46875 -1.671875q0 -1.0 0.578125 -1.875q0.578125 -0.890625 1.671875 -1.34375q1.109375 -0.453125 2.453125 -0.453125q1.484375 0 2.609375 0.484375q1.140625 0.46875 1.75 1.40625q0.609375 0.921875 0.65625 2.09375l-1.6875 0.125q-0.140625 -1.265625 -0.9375 -1.90625q-0.78125 -0.65625 -2.3125 -0.65625q-1.609375 0 -2.34375 0.59375q-0.734375 0.59375 -0.734375 1.421875q0 0.71875 0.53125 1.171875q0.5 0.46875 2.65625 0.96875q2.15625 0.484375 2.953125 0.84375q1.171875 0.53125 1.71875 1.359375q0.5625 0.828125 0.5625 1.90625q0 1.0625 -0.609375 2.015625q-0.609375 0.9375 -1.75 1.46875q-1.140625 0.515625 -2.578125 0.515625q-1.8125 0 -3.046875 -0.53125q-1.21875 -0.53125 -1.921875 -1.59375q-0.6875 -1.0625 -0.71875 -2.40625zm12.224823 -0.546875q0 -2.6875 1.484375 -3.96875q1.25 -1.078125 3.046875 -1.078125q2.0 0 3.265625 1.3125q1.265625 1.296875 1.265625 3.609375q0 1.859375 -0.5625 2.9375q-0.5625 1.0625 -1.640625 1.65625q-1.0625 0.59375 -2.328125 0.59375q-2.03125 0 -3.28125 -1.296875q-1.25 -1.3125 -1.25 -3.765625zm1.6875 0q0 1.859375 0.796875 2.796875q0.8125 0.921875 2.046875 0.921875q1.21875 0 2.03125 -0.921875q0.8125 -0.9375 0.8125 -2.84375q0 -1.796875 -0.8125 -2.71875q-0.8125 -0.921875 -2.03125 -0.921875q-1.234375 0 -2.046875 0.921875q-0.796875 0.90625 -0.796875 2.765625zm9.250717 4.84375l0 -13.359375l1.640625 0l0 13.359375l-1.640625 0zm10.504196 -1.1875q-0.921875 0.765625 -1.765625 1.09375q-0.828125 0.3125 -1.796875 0.3125q-1.59375 0 -2.453125 -0.78125q-0.859375 -0.78125 -0.859375 -1.984375q0 -0.71875 0.328125 -1.296875q0.328125 -0.59375 0.84375 -0.9375q0.53125 -0.359375 1.1875 -0.546875q0.46875 -0.125 1.453125 -0.25q1.984375 -0.234375 2.921875 -0.5625q0.015625 -0.34375 0.015625 -0.421875q0 -1.0 -0.46875 -1.421875q-0.625 -0.546875 -1.875 -0.546875q-1.15625 0 -1.703125 0.40625q-0.546875 0.40625 -0.8125 1.421875l-1.609375 -0.21875q0.21875 -1.015625 0.71875 -1.640625q0.5 -0.640625 1.453125 -0.984375q0.953125 -0.34375 2.1875 -0.34375q1.25 0 2.015625 0.296875q0.78125 0.28125 1.140625 0.734375q0.375 0.4375 0.515625 1.109375q0.078125 0.421875 0.078125 1.515625l0 2.1875q0 2.28125 0.109375 2.890625q0.109375 0.59375 0.40625 1.15625l-1.703125 0q-0.265625 -0.515625 -0.328125 -1.1875zm-0.140625 -3.671875q-0.890625 0.375 -2.671875 0.625q-1.015625 0.140625 -1.4375 0.328125q-0.421875 0.1875 -0.65625 0.53125q-0.21875 0.34375 -0.21875 0.78125q0 0.65625 0.5 1.09375q0.5 0.4375 1.453125 0.4375q0.9375 0 1.671875 -0.40625q0.75 -0.421875 1.09375 -1.140625q0.265625 -0.5625 0.265625 -1.640625l0 -0.609375zm4.188217 4.859375l0 -9.671875l1.46875 0l0 1.46875q0.5625 -1.03125 1.03125 -1.359375q0.484375 -0.328125 1.0625 -0.328125q0.828125 0 1.6875 0.53125l-0.5625 1.515625q-0.609375 -0.359375 -1.203125 -0.359375q-0.546875 0 -0.96875 0.328125q-0.421875 0.328125 -0.609375 0.890625q-0.28125 0.875 -0.28125 1.921875l0 5.0625l-1.625 0zm11.614731 0l0 -13.359375l5.046875 0q1.328125 0 2.03125 0.125q0.96875 0.171875 1.640625 0.640625q0.671875 0.453125 1.078125 1.28125q0.40625 0.828125 0.40625 1.828125q0 1.703125 -1.09375 2.890625q-1.078125 1.171875 -3.921875 1.171875l-3.421875 0l0 5.421875l-1.765625 0zm1.765625 -7.0l3.453125 0q1.71875 0 2.4375 -0.640625q0.71875 -0.640625 0.71875 -1.796875q0 -0.84375 -0.421875 -1.4375q-0.421875 -0.59375 -1.125 -0.78125q-0.4375 -0.125 -1.640625 -0.125l-3.421875 0l0 4.78125zm16.787323 5.8125q-0.921875 0.765625 -1.765625 1.09375q-0.828125 0.3125 -1.796875 0.3125q-1.59375 0 -2.453125 -0.78125q-0.859375 -0.78125 -0.859375 -1.984375q0 -0.71875 0.328125 -1.296875q0.328125 -0.59375 0.84375 -0.9375q0.53125 -0.359375 1.1875 -0.546875q0.46875 -0.125 1.453125 -0.25q1.984375 -0.234375 2.921875 -0.5625q0.015625 -0.34375 0.015625 -0.421875q0 -1.0 -0.46875 -1.421875q-0.625 -0.546875 -1.875 -0.546875q-1.15625 0 -1.703125 0.40625q-0.546875 0.40625 -0.8125 1.421875l-1.609375 -0.21875q0.21875 -1.015625 0.71875 -1.640625q0.5 -0.640625 1.453125 -0.984375q0.953125 -0.34375 2.1875 -0.34375q1.25 0 2.015625 0.296875q0.78125 0.28125 1.140625 0.734375q0.375 0.4375 0.515625 1.109375q0.078125 0.421875 0.078125 1.515625l0 2.1875q0 2.28125 0.109375 2.890625q0.109375 0.59375 0.40625 1.15625l-1.703125 0q-0.265625 -0.515625 -0.328125 -1.1875zm-0.140625 -3.671875q-0.890625 0.375 -2.671875 0.625q-1.015625 0.140625 -1.4375 0.328125q-0.421875 0.1875 -0.65625 0.53125q-0.21875 0.34375 -0.21875 0.78125q0 0.65625 0.5 1.09375q0.5 0.4375 1.453125 0.4375q0.9375 0 1.671875 -0.40625q0.75 -0.421875 1.09375 -1.140625q0.265625 -0.5625 0.265625 -1.640625l0 -0.609375zm4.203842 4.859375l0 -9.671875l1.46875 0l0 1.375q1.0625 -1.59375 3.078125 -1.59375q0.875 0 1.609375 0.3125q0.734375 0.3125 1.09375 0.828125q0.375 0.5 0.515625 1.203125q0.09375 0.453125 0.09375 1.59375l0 5.953125l-1.640625 0l0 -5.890625q0 -1.0 -0.203125 -1.484375q-0.1875 -0.5 -0.671875 -0.796875q-0.484375 -0.296875 -1.140625 -0.296875q-1.046875 0 -1.8125 0.671875q-0.75 0.65625 -0.75 2.515625l0 5.28125l-1.640625 0zm17.000717 -3.109375l1.6875 0.203125q-0.40625 1.484375 -1.484375 2.3125q-1.078125 0.8125 -2.765625 0.8125q-2.125 0 -3.375 -1.296875q-1.234375 -1.3125 -1.234375 -3.671875q0 -2.453125 1.25 -3.796875q1.265625 -1.34375 3.265625 -1.34375q1.9375 0 3.15625 1.328125q1.234375 1.3125 1.234375 3.703125q0 0.15625 0 0.4375l-7.21875 0q0.09375 1.59375 0.90625 2.453125q0.8125 0.84375 2.015625 0.84375q0.90625 0 1.546875 -0.46875q0.640625 -0.484375 1.015625 -1.515625zm-5.390625 -2.65625l5.40625 0q-0.109375 -1.21875 -0.625 -1.828125q-0.78125 -0.953125 -2.03125 -0.953125q-1.125 0 -1.90625 0.765625q-0.765625 0.75 -0.84375 2.015625zm9.094467 5.765625l0 -13.359375l1.640625 0l0 13.359375l-1.640625 0z" fill-rule="nonzero"/><path fill="#000000" d="m42.201538 62.76135l0 -3.671875l-3.640625 0l0 -1.515625l3.640625 0l0 -3.640625l1.546875 0l0 3.640625l3.640625 0l0 1.515625l-3.640625 0l0 3.671875l-1.546875 0zm58.64987 -1.859375l0 -1.640625l5.03125 0l0 1.640625l-5.03125 0z" fill-rule="nonzero"/><path fill="#cfe2f3" d="m168.0 47.98669l16.0 0l0 32.000004l-16.0 0z" fill-rule="evenodd"/><path stroke="#000000" stroke-width="1.0" stroke-linejoin="round" stroke-linecap="butt" d="m168.0 47.98669l16.0 0l0 32.000004l-16.0 0z" fill-rule="evenodd"/><path fill="#cfe2f3" d="m232.0 47.98669l16.0 0l0 32.000004l-16.0 0z" fill-rule="evenodd"/><path stroke="#000000" stroke-width="1.0" stroke-linejoin="round" stroke-linecap="butt" d="m232.0 47.98669l16.0 0l0 32.000004l-16.0 0z" fill-rule="evenodd"/><path fill="#cfe2f3" d="m152.0 25.320211l0 0c0 -5.1547623 4.1787567 -9.333521 9.333527 -9.333521l93.33295 0c2.4754028 0 4.8494263 0.98335075 6.5997925 2.7337246c1.7503967 1.7503757 2.7337341 4.1243916 2.7337341 6.5997963l0 37.332962c0 5.1547585 -4.178772 9.333523 -9.333527 9.333523l-93.33295 0c-5.15477 0 -9.333527 -4.1787643 -9.333527 -9.333523z" fill-rule="evenodd"/><path stroke="#000000" stroke-width="1.0" stroke-linejoin="round" stroke-linecap="butt" d="m152.0 25.320211l0 0c0 -5.1547623 4.1787567 -9.333521 9.333527 -9.333521l93.33295 0c2.4754028 0 4.8494263 0.98335075 6.5997925 2.7337246c1.7503967 1.7503757 2.7337341 4.1243916 2.7337341 6.5997963l0 37.332962c0 5.1547585 -4.178772 9.333523 -9.333527 9.333523l-93.33295 0c-5.15477 0 -9.333527 -4.1787643 -9.333527 -9.333523z" fill-rule="evenodd"/><path fill="#000000" fill-opacity="0.0" d="m144.0 15.9866905l128.0 0l0 24.0l-128.0 0z" fill-rule="evenodd"/><path fill="#000000" d="m179.80817 42.90669l0 -13.359375l5.015625 0q1.53125 0 2.453125 0.40625q0.921875 0.40625 1.4375 1.25q0.53125 0.84375 0.53125 1.765625q0 0.859375 -0.46875 1.625q-0.453125 0.75 -1.390625 1.203125q1.203125 0.359375 1.859375 1.21875q0.65625 0.859375 0.65625 2.015625q0 0.9375 -0.40625 1.75q-0.390625 0.796875 -0.984375 1.234375q-0.578125 0.4375 -1.453125 0.671875q-0.875 0.21875 -2.15625 0.21875l-5.09375 0zm1.78125 -7.75l2.875 0q1.1875 0 1.6875 -0.140625q0.671875 -0.203125 1.015625 -0.671875q0.34375 -0.46875 0.34375 -1.171875q0 -0.65625 -0.328125 -1.15625q-0.3125 -0.515625 -0.90625 -0.703125q-0.59375 -0.1875 -2.03125 -0.1875l-2.65625 0l0 4.03125zm0 6.171875l3.3125 0q0.859375 0 1.203125 -0.0625q0.609375 -0.109375 1.015625 -0.359375q0.421875 -0.265625 0.6875 -0.75q0.265625 -0.484375 0.265625 -1.125q0 -0.75 -0.390625 -1.296875q-0.375 -0.546875 -1.0625 -0.765625q-0.671875 -0.234375 -1.953125 -0.234375l-3.078125 0l0 4.59375zm16.849823 0.390625q-0.921875 0.765625 -1.765625 1.09375q-0.828125 0.3125 -1.796875 0.3125q-1.59375 0 -2.453125 -0.78125q-0.859375 -0.78125 -0.859375 -1.984375q0 -0.71875 0.328125 -1.296875q0.328125 -0.59375 0.84375 -0.9375q0.53125 -0.359375 1.1875 -0.546875q0.46875 -0.125 1.453125 -0.25q1.984375 -0.234375 2.921875 -0.5625q0.015625 -0.34375 0.015625 -0.421875q0 -1.0 -0.46875 -1.421875q-0.625 -0.546875 -1.875 -0.546875q-1.15625 0 -1.703125 0.40625q-0.546875 0.40625 -0.8125 1.421875l-1.609375 -0.21875q0.21875 -1.015625 0.71875 -1.640625q0.5 -0.640625 1.453125 -0.984375q0.953125 -0.34375 2.1875 -0.34375q1.25 0 2.015625 0.296875q0.78125 0.28125 1.140625 0.734375q0.375 0.4375 0.515625 1.109375q0.078125 0.421875 0.078125 1.515625l0 2.1875q0 2.28125 0.109375 2.890625q0.109375 0.59375 0.40625 1.15625l-1.703125 0q-0.265625 -0.515625 -0.328125 -1.1875zm-0.140625 -3.671875q-0.890625 0.375 -2.671875 0.625q-1.015625 0.140625 -1.4375 0.328125q-0.421875 0.1875 -0.65625 0.53125q-0.21875 0.34375 -0.21875 0.78125q0 0.65625 0.5 1.09375q0.5 0.4375 1.453125 0.4375q0.9375 0 1.671875 -0.40625q0.75 -0.421875 1.09375 -1.140625q0.265625 -0.5625 0.265625 -1.640625l0 -0.609375zm7.781967 3.390625l0.234375 1.453125q-0.6875 0.140625 -1.234375 0.140625q-0.890625 0 -1.390625 -0.28125q-0.484375 -0.28125 -0.6875 -0.734375q-0.203125 -0.46875 -0.203125 -1.9375l0 -5.578125l-1.203125 0l0 -1.265625l1.203125 0l0 -2.390625l1.625 -0.984375l0 3.375l1.65625 0l0 1.265625l-1.65625 0l0 5.671875q0 0.6875 0.078125 0.890625q0.09375 0.203125 0.28125 0.328125q0.203125 0.109375 0.578125 0.109375q0.265625 0 0.71875 -0.0625zm5.183304 0l0.234375 1.453125q-0.6875 0.140625 -1.234375 0.140625q-0.890625 0 -1.390625 -0.28125q-0.484375 -0.28125 -0.6875 -0.734375q-0.203125 -0.46875 -0.203125 -1.9375l0 -5.578125l-1.203125 0l0 -1.265625l1.203125 0l0 -2.390625l1.625 -0.984375l0 3.375l1.65625 0l0 1.265625l-1.65625 0l0 5.671875q0 0.6875 0.078125 0.890625q0.09375 0.203125 0.28125 0.328125q0.203125 0.109375 0.578125 0.109375q0.265625 0 0.71875 -0.0625zm8.230179 -1.640625l1.6875 0.203125q-0.40625 1.484375 -1.484375 2.3125q-1.078125 0.8125 -2.765625 0.8125q-2.125 0 -3.375 -1.296875q-1.234375 -1.3125 -1.234375 -3.671875q0 -2.453125 1.25 -3.796875q1.265625 -1.34375 3.265625 -1.34375q1.9375 0 3.15625 1.328125q1.234375 1.3125 1.234375 3.703125q0 0.15625 0 0.4375l-7.21875 0q0.09375 1.59375 0.90625 2.453125q0.8125 0.84375 2.015625 0.84375q0.90625 0 1.546875 -0.46875q0.640625 -0.484375 1.015625 -1.515625zm-5.390625 -2.65625l5.40625 0q-0.109375 -1.21875 -0.625 -1.828125q-0.78125 -0.953125 -2.03125 -0.953125q-1.125 0 -1.90625 0.765625q-0.765625 0.75 -0.84375 2.015625zm9.125717 5.765625l0 -9.671875l1.46875 0l0 1.46875q0.5625 -1.03125 1.03125 -1.359375q0.484375 -0.328125 1.0625 -0.328125q0.828125 0 1.6875 0.53125l-0.5625 1.515625q-0.609375 -0.359375 -1.203125 -0.359375q-0.546875 0 -0.96875 0.328125q-0.421875 0.328125 -0.609375 0.890625q-0.28125 0.875 -0.28125 1.921875l0 5.0625l-1.625 0zm6.150177 3.71875l-0.1875 -1.53125q0.546875 0.140625 0.9375 0.140625q0.546875 0 0.875 -0.1875q0.328125 -0.171875 0.546875 -0.5q0.15625 -0.25 0.5 -1.21875q0.046875 -0.140625 0.140625 -0.40625l-3.671875 -9.6875l1.765625 0l2.015625 5.59375q0.390625 1.078125 0.703125 2.25q0.28125 -1.125 0.671875 -2.203125l2.078125 -5.640625l1.640625 0l-3.6875 9.828125q-0.59375 1.609375 -0.921875 2.203125q-0.4375 0.8125 -1.0 1.1875q-0.5625 0.375 -1.34375 0.375q-0.484375 0 -1.0625 -0.203125z" fill-rule="nonzero"/><path fill="#000000" d="m178.20154 62.75044l0 -3.671875l-3.640625 0l0 -1.515625l3.640625 0l0 -3.640625l1.546875 0l0 3.640625l3.640625 0l0 1.515625l-3.640625 0l0 3.671875l-1.546875 0zm58.64987 -1.859375l0 -1.640625l5.03125 0l0 1.640625l-5.03125 0z" fill-rule="nonzero"/><path fill="#000000" fill-opacity="0.0" d="m280.0 124.0c-20.0 0 -40.0 -22.0 -40.0 -44.0" fill-rule="evenodd"/><path stroke="#000000" stroke-width="4.0" stroke-linejoin="round" stroke-linecap="butt" d="m280.0 124.0c-20.0 0 -40.0 -22.0 -40.0 -44.0" fill-rule="evenodd"/><path fill="#000000" fill-opacity="0.0" d="m104.0 168.0c0 -12.5 18.0 -25.007874 36.0 -25.0c18.0 0.007873535 36.0 12.531494 36.0 25.062988" fill-rule="evenodd"/><path stroke="#ff0000" stroke-width="4.0" stroke-linejoin="round" stroke-linecap="butt" d="m104.0 168.0c0 -12.5 18.0 -25.007874 36.0 -25.0c18.0 0.007873535 36.0 12.531494 36.0 25.062988" fill-rule="evenodd"/><path fill="#000000" fill-opacity="0.0" d="m104.0 80.0c0 12.5 34.0 24.992126 68.0 25.0c34.0 0.007873535 68.0 -12.468506 68.0 -24.937004" fill-rule="evenodd"/><path stroke="#000000" stroke-width="4.0" stroke-linejoin="round" stroke-linecap="butt" d="m104.0 80.0c0 12.5 34.0 24.992126 68.0 25.0c34.0 0.007873535 68.0 -12.468506 68.0 -24.937004" fill-rule="evenodd"/><path fill="#cfe2f3" d="m736.0 48.0l16.0 0l0 32.0l-16.0 0z" fill-rule="evenodd"/><path stroke="#000000" stroke-width="1.0" stroke-linejoin="round" stroke-linecap="butt" d="m736.0 48.0l16.0 0l0 32.0l-16.0 0z" fill-rule="evenodd"/><path fill="#cfe2f3" d="m800.0 48.0l16.0 0l0 32.0l-16.0 0z" fill-rule="evenodd"/><path stroke="#000000" stroke-width="1.0" stroke-linejoin="round" stroke-linecap="butt" d="m800.0 48.0l16.0 0l0 32.0l-16.0 0z" fill-rule="evenodd"/><path fill="#cfe2f3" d="m720.0 25.33352l0 0c0 -5.1547623 4.178772 -9.333521 9.333496 -9.333521l93.33301 0c2.4754028 0 4.8494263 0.98335075 6.5997925 2.7337246c1.7503662 1.7503738 2.7337036 4.1243916 2.7337036 6.5997963l0 37.332962c0 5.1547623 -4.178772 9.333519 -9.333496 9.333519l-93.33301 0c-5.154724 0 -9.333496 -4.1787567 -9.333496 -9.333519z" fill-rule="evenodd"/><path stroke="#000000" stroke-width="1.0" stroke-linejoin="round" stroke-linecap="butt" d="m720.0 25.33352l0 0c0 -5.1547623 4.178772 -9.333521 9.333496 -9.333521l93.33301 0c2.4754028 0 4.8494263 0.98335075 6.5997925 2.7337246c1.7503662 1.7503738 2.7337036 4.1243916 2.7337036 6.5997963l0 37.332962c0 5.1547623 -4.178772 9.333519 -9.333496 9.333519l-93.33301 0c-5.154724 0 -9.333496 -4.1787567 -9.333496 -9.333519z" fill-rule="evenodd"/><path fill="#000000" fill-opacity="0.0" d="m712.0 16.0l128.0 0l0 24.0l-128.0 0z" fill-rule="evenodd"/><path fill="#000000" d="m735.4362 42.92l0 -13.359375l1.8125 0l7.015625 10.484375l0 -10.484375l1.6875 0l0 13.359375l-1.8125 0l-7.015625 -10.5l0 10.5l-1.6875 0zm13.738586 0l0 -1.875l1.875 0l0 1.875l-1.875 0zm14.464539 -4.6875l1.765625 0.453125q-0.5625 2.171875 -2.0 3.328125q-1.4375 1.140625 -3.53125 1.140625q-2.15625 0 -3.515625 -0.875q-1.34375 -0.890625 -2.0625 -2.546875q-0.703125 -1.671875 -0.703125 -3.59375q0 -2.078125 0.796875 -3.625q0.796875 -1.5625 2.265625 -2.359375q1.484375 -0.8125 3.25 -0.8125q2.0 0 3.359375 1.015625q1.375 1.015625 1.90625 2.875l-1.734375 0.40625q-0.46875 -1.453125 -1.359375 -2.109375q-0.875 -0.671875 -2.203125 -0.671875q-1.546875 0 -2.578125 0.734375q-1.03125 0.734375 -1.453125 1.984375q-0.421875 1.234375 -0.421875 2.5625q0 1.703125 0.5 2.96875q0.5 1.265625 1.546875 1.90625q1.046875 0.625 2.265625 0.625q1.484375 0 2.515625 -0.859375q1.03125 -0.859375 1.390625 -2.546875zm4.1917114 4.6875l0 -1.875l1.875 0l0 1.875l-1.875 0zm10.210327 0l0 -13.359375l9.015625 0l0 1.578125l-7.25 0l0 4.140625l6.265625 0l0 1.578125l-6.265625 0l0 6.0625l-1.765625 0zm11.052246 0l0 -13.359375l1.640625 0l0 13.359375l-1.640625 0zm3.5822754 -4.84375q0 -2.6875 1.484375 -3.96875q1.25 -1.078125 3.046875 -1.078125q2.0 0 3.265625 1.3125q1.265625 1.296875 1.265625 3.609375q0 1.859375 -0.5625 2.9375q-0.5625 1.0625 -1.640625 1.65625q-1.0625 0.59375 -2.328125 0.59375q-2.03125 0 -3.28125 -1.296875q-1.25 -1.3125 -1.25 -3.765625zm1.6875 0q0 1.859375 0.796875 2.796875q0.8125 0.921875 2.046875 0.921875q1.21875 0 2.03125 -0.921875q0.8125 -0.9375 0.8125 -2.84375q0 -1.796875 -0.8125 -2.71875q-0.8125 -0.921875 -2.03125 -0.921875q-1.234375 0 -2.046875 0.921875q-0.796875 0.90625 -0.796875 2.765625zm15.610107 3.65625q-0.921875 0.765625 -1.765625 1.09375q-0.828125 0.3125 -1.796875 0.3125q-1.59375 0 -2.453125 -0.78125q-0.859375 -0.78125 -0.859375 -1.984375q0 -0.71875 0.328125 -1.296875q0.328125 -0.59375 0.84375 -0.9375q0.53125 -0.359375 1.1875 -0.546875q0.46875 -0.125 1.453125 -0.25q1.984375 -0.234375 2.921875 -0.5625q0.015625 -0.34375 0.015625 -0.421875q0 -1.0 -0.46875 -1.421875q-0.625 -0.546875 -1.875 -0.546875q-1.15625 0 -1.703125 0.40625q-0.546875 0.40625 -0.8125 1.421875l-1.609375 -0.21875q0.21875 -1.015625 0.71875 -1.640625q0.5 -0.640625 1.453125 -0.984375q0.953125 -0.34375 2.1875 -0.34375q1.25 0 2.015625 0.296875q0.78125 0.28125 1.140625 0.734375q0.375 0.4375 0.515625 1.109375q0.078125 0.421875 0.078125 1.515625l0 2.1875q0 2.28125 0.109375 2.890625q0.109375 0.59375 0.40625 1.15625l-1.703125 0q-0.265625 -0.515625 -0.328125 -1.1875zm-0.140625 -3.671875q-0.890625 0.375 -2.671875 0.625q-1.015625 0.140625 -1.4375 0.328125q-0.421875 0.1875 -0.65625 0.53125q-0.21875 0.34375 -0.21875 0.78125q0 0.65625 0.5 1.09375q0.5 0.4375 1.453125 0.4375q0.9375 0 1.671875 -0.40625q0.75 -0.421875 1.09375 -1.140625q0.265625 -0.5625 0.265625 -1.640625l0 -0.609375zm7.7819824 3.390625l0.234375 1.453125q-0.6875 0.140625 -1.234375 0.140625q-0.890625 0 -1.390625 -0.28125q-0.484375 -0.28125 -0.6875 -0.734375q-0.203125 -0.46875 -0.203125 -1.9375l0 -5.578125l-1.203125 0l0 -1.265625l1.203125 0l0 -2.390625l1.625 -0.984375l0 3.375l1.65625 0l0 1.265625l-1.65625 0l0 5.671875q0 0.6875 0.078125 0.890625q0.09375 0.203125 0.28125 0.328125q0.203125 0.109375 0.578125 0.109375q0.265625 0 0.71875 -0.0625z" fill-rule="nonzero"/><path fill="#000000" d="m749.3695 60.623123l1.65625 -0.140625q0.125 1.0 0.546875 1.640625q0.4375 0.640625 1.34375 1.046875q0.921875 0.390625 2.0625 0.390625q1.0 0 1.78125 -0.296875q0.78125 -0.296875 1.15625 -0.8125q0.375 -0.53125 0.375 -1.15625q0 -0.625 -0.375 -1.09375q-0.359375 -0.46875 -1.1875 -0.796875q-0.546875 -0.203125 -2.390625 -0.640625q-1.828125 -0.453125 -2.5625 -0.84375q-0.96875 -0.5 -1.4375 -1.234375q-0.46875 -0.75 -0.46875 -1.671875q0 -1.0 0.578125 -1.875q0.578125 -0.890625 1.671875 -1.34375q1.109375 -0.453125 2.453125 -0.453125q1.484375 0 2.609375 0.484375q1.140625 0.46875 1.75 1.40625q0.609375 0.921875 0.65625 2.09375l-1.6875 0.125q-0.140625 -1.265625 -0.9375 -1.90625q-0.78125 -0.65625 -2.3125 -0.65625q-1.609375 0 -2.34375 0.59375q-0.734375 0.59375 -0.734375 1.421875q0 0.71875 0.53125 1.171875q0.5 0.46875 2.65625 0.96875q2.15625 0.484375 2.953125 0.84375q1.171875 0.53125 1.71875 1.359375q0.5625 0.828125 0.5625 1.90625q0 1.0625 -0.609375 2.015625q-0.609375 0.9375 -1.75 1.46875q-1.140625 0.515625 -2.578125 0.515625q-1.8125 0 -3.046875 -0.53125q-1.21875 -0.53125 -1.921875 -1.59375q-0.6875 -1.0625 -0.71875 -2.40625zm14.6154785 4.296875l-2.96875 -9.671875l1.703125 0l1.53125 5.578125l0.578125 2.078125q0.046875 -0.15625 0.5 -2.0l1.546875 -5.65625l1.6875 0l1.4375 5.609375l0.484375 1.84375l0.5625 -1.859375l1.65625 -5.59375l1.59375 0l-3.03125 9.671875l-1.703125 0l-1.53125 -5.796875l-0.375 -1.640625l-1.953125 7.4375l-1.71875 0zm11.69165 -11.46875l0 -1.890625l1.640625 0l0 1.890625l-1.640625 0zm0 11.46875l0 -9.671875l1.640625 0l0 9.671875l-1.640625 0zm7.7229614 -1.46875l0.234375 1.453125q-0.6875 0.140625 -1.234375 0.140625q-0.890625 0 -1.390625 -0.28125q-0.484375 -0.28125 -0.6875 -0.734375q-0.203125 -0.46875 -0.203125 -1.9375l0 -5.578125l-1.203125 0l0 -1.265625l1.203125 0l0 -2.390625l1.625 -0.984375l0 3.375l1.65625 0l0 1.265625l-1.65625 0l0 5.671875q0 0.6875 0.078125 0.890625q0.09375 0.203125 0.28125 0.328125q0.203125 0.109375 0.578125 0.109375q0.265625 0 0.71875 -0.0625zm7.9176636 -2.078125l1.609375 0.21875q-0.265625 1.65625 -1.359375 2.609375q-1.078125 0.9375 -2.671875 0.9375q-1.984375 0 -3.1875 -1.296875q-1.203125 -1.296875 -1.203125 -3.71875q0 -1.578125 0.515625 -2.75q0.515625 -1.171875 1.578125 -1.75q1.0625 -0.59375 2.3125 -0.59375q1.578125 0 2.578125 0.796875q1.0 0.796875 1.28125 2.265625l-1.59375 0.234375q-0.234375 -0.96875 -0.8125 -1.453125q-0.578125 -0.5 -1.390625 -0.5q-1.234375 0 -2.015625 0.890625q-0.78125 0.890625 -0.78125 2.8125q0 1.953125 0.75 2.84375q0.75 0.875 1.953125 0.875q0.96875 0 1.609375 -0.59375q0.65625 -0.59375 0.828125 -1.828125zm3.015625 3.546875l0 -13.359375l1.640625 0l0 4.796875q1.140625 -1.328125 2.890625 -1.328125q1.078125 0 1.859375 0.421875q0.796875 0.421875 1.140625 1.171875q0.34375 0.75 0.34375 2.171875l0 6.125l-1.640625 0l0 -6.125q0 -1.234375 -0.53125 -1.796875q-0.53125 -0.5625 -1.515625 -0.5625q-0.71875 0 -1.359375 0.390625q-0.640625 0.375 -0.921875 1.015625q-0.265625 0.640625 -0.265625 1.78125l0 5.296875l-1.640625 0z" fill-rule="nonzero"/><path fill="#000000" fill-opacity="0.0" d="m448.0 166.55118c0 -21.275589 124.0 -42.551178 248.0 -42.551178" fill-rule="evenodd"/><path stroke="#000000" stroke-width="4.0" stroke-linejoin="round" stroke-linecap="butt" d="m448.0 166.55118c0 -21.275589 124.0 -42.551178 248.0 -42.551178" fill-rule="evenodd"/><path fill="#000000" fill-opacity="0.0" d="m480.0 166.55118c0 -17.275589 108.0 -34.551178 216.0 -34.551178" fill-rule="evenodd"/><path stroke="#999999" stroke-width="4.0" stroke-linejoin="round" stroke-linecap="butt" d="m480.0 166.55118c0 -17.275589 108.0 -34.551178 216.0 -34.551178" fill-rule="evenodd"/><path fill="#cfe2f3" d="m368.0 286.55118l93.33295 0l18.667053 18.667053l0 93.33295l-112.0 0z" fill-rule="evenodd"/><path stroke="#000000" stroke-width="1.0" stroke-linejoin="round" stroke-linecap="butt" d="m368.0 286.55118l93.33295 0l18.667053 18.667053l0 93.33295l-112.0 0z" fill-rule="evenodd"/><path fill="#cfe2f3" d="m368.0 382.55118l16.0 0l0 16.0l-16.0 0z" fill-rule="evenodd"/><path stroke="#000000" stroke-width="1.0" stroke-linejoin="round" stroke-linecap="butt" d="m368.0 382.55118l16.0 0l0 16.0l-16.0 0z" fill-rule="evenodd"/><path fill="#cfe2f3" d="m384.0 382.55118l16.0 0l0 16.0l-16.0 0z" fill-rule="evenodd"/><path stroke="#000000" stroke-width="1.0" stroke-linejoin="round" stroke-linecap="butt" d="m384.0 382.55118l16.0 0l0 16.0l-16.0 0z" fill-rule="evenodd"/><path fill="#cfe2f3" d="m368.0 286.55118l16.0 0l0 16.0l-16.0 0z" fill-rule="evenodd"/><path stroke="#000000" stroke-width="1.0" stroke-linejoin="round" stroke-linecap="butt" d="m368.0 286.55118l16.0 0l0 16.0l-16.0 0z" fill-rule="evenodd"/><path fill="#cfe2f3" d="m384.0 286.55118l16.0 0l0 16.0l-16.0 0z" fill-rule="evenodd"/><path stroke="#000000" stroke-width="1.0" stroke-linejoin="round" stroke-linecap="butt" d="m384.0 286.55118l16.0 0l0 16.0l-16.0 0z" fill-rule="evenodd"/><path fill="#000000" fill-opacity="0.0" d="m392.0 286.55118c0 -14.0 14.0 -21.0 28.0 -28.0c14.0 -7.0 28.0 -14.0 28.0 -28.0" fill-rule="evenodd"/><path stroke="#00ff00" stroke-width="3.0" stroke-linejoin="round" stroke-linecap="butt" d="m392.0 286.55118c0 -14.0 14.0 -21.0 28.0 -28.0c14.0 -7.0 28.0 -14.0 28.0 -28.0" fill-rule="evenodd"/><path fill="#000000" fill-opacity="0.0" d="m376.0 286.55118c0 -14.0 10.0 -21.0 20.0 -28.0c10.0 -7.0 20.0 -14.0 20.0 -28.0" fill-rule="evenodd"/><path stroke="#ff00ff" stroke-width="3.0" stroke-linejoin="round" stroke-linecap="butt" d="m376.0 286.55118c0 -14.0 10.0 -21.0 20.0 -28.0c10.0 -7.0 20.0 -14.0 20.0 -28.0" fill-rule="evenodd"/><path fill="#000000" fill-opacity="0.0" d="m360.0 296.0l112.0 0l0 32.0l-112.0 0z" fill-rule="evenodd"/><path fill="#000000" d="m372.375 316.52l-3.328125 -8.59375l1.234375 0l2.234375 6.25q0.265625 0.75 0.453125 1.40625q0.203125 -0.703125 0.46875 -1.40625l2.3125 -6.25l1.15625 0l-3.359375 8.59375l-1.171875 0zm5.2089844 -7.375l0 -1.21875l1.0625 0l0 1.21875l-1.0625 0zm0 7.375l0 -6.21875l1.0625 0l0 6.21875l-1.0625 0zm2.6660156 0l0 -6.21875l0.9375 0l0 0.875q0.6875 -1.015625 1.984375 -1.015625q0.5625 0 1.03125 0.203125q0.484375 0.203125 0.71875 0.53125q0.234375 0.328125 0.328125 0.765625q0.046875 0.296875 0.046875 1.03125l0 3.828125l-1.046875 0l0 -3.78125q0 -0.65625 -0.125 -0.96875q-0.125 -0.3125 -0.4375 -0.5q-0.3125 -0.203125 -0.734375 -0.203125q-0.671875 0 -1.171875 0.4375q-0.484375 0.421875 -0.484375 1.609375l0 3.40625l-1.046875 0zm14.1640625 -3.375l0 -1.0l3.625 -0.015625l0 3.1875q-0.828125 0.671875 -1.71875 1.015625q-0.890625 0.328125 -1.828125 0.328125q-1.265625 0 -2.3125 -0.53125q-1.03125 -0.546875 -1.5625 -1.5625q-0.515625 -1.03125 -0.515625 -2.296875q0 -1.265625 0.515625 -2.34375q0.53125 -1.09375 1.515625 -1.609375q0.984375 -0.53125 2.265625 -0.53125q0.9375 0 1.6875 0.296875q0.75 0.296875 1.171875 0.84375q0.4375 0.53125 0.65625 1.40625l-1.015625 0.28125q-0.203125 -0.65625 -0.5 -1.03125q-0.28125 -0.375 -0.8125 -0.59375q-0.53125 -0.234375 -1.171875 -0.234375q-0.78125 0 -1.359375 0.234375q-0.5625 0.234375 -0.921875 0.625q-0.34375 0.390625 -0.53125 0.859375q-0.328125 0.796875 -0.328125 1.71875q0 1.15625 0.390625 1.9375q0.40625 0.765625 1.15625 1.140625q0.75 0.375 1.609375 0.375q0.734375 0 1.4375 -0.28125q0.703125 -0.296875 1.0625 -0.609375l0 -1.609375l-2.515625 0zm12.667969 0l0 -1.0l3.625 -0.015625l0 3.1875q-0.828125 0.671875 -1.71875 1.015625q-0.890625 0.328125 -1.828125 0.328125q-1.265625 0 -2.3125 -0.53125q-1.03125 -0.546875 -1.5625 -1.5625q-0.515625 -1.03125 -0.515625 -2.296875q0 -1.265625 0.515625 -2.34375q0.53125 -1.09375 1.515625 -1.609375q0.984375 -0.53125 2.265625 -0.53125q0.9375 0 1.6875 0.296875q0.75 0.296875 1.171875 0.84375q0.4375 0.53125 0.65625 1.40625l-1.015625 0.28125q-0.203125 -0.65625 -0.5 -1.03125q-0.28125 -0.375 -0.8125 -0.59375q-0.53125 -0.234375 -1.171875 -0.234375q-0.78125 0 -1.359375 0.234375q-0.5625 0.234375 -0.921875 0.625q-0.34375 0.390625 -0.53125 0.859375q-0.328125 0.796875 -0.328125 1.71875q0 1.15625 0.390625 1.9375q0.40625 0.765625 1.15625 1.140625q0.75 0.375 1.609375 0.375q0.734375 0 1.4375 -0.28125q0.703125 -0.296875 1.0625 -0.609375l0 -1.609375l-2.515625 0zm13.705078 3.375l3.296875 -8.59375l1.21875 0l3.515625 8.59375l-1.28125 0l-1.015625 -2.609375l-3.578125 0l-0.953125 2.609375l-1.203125 0zm2.484375 -3.53125l2.90625 0l-0.890625 -2.375q-0.421875 -1.078125 -0.609375 -1.78125q-0.171875 0.828125 -0.46875 1.640625l-0.9375 2.515625zm11.582031 2.515625l0 1.015625l-5.6875 0q0 -0.375 0.125 -0.734375q0.21875 -0.578125 0.6875 -1.140625q0.484375 -0.5625 1.390625 -1.296875q1.40625 -1.15625 1.890625 -1.828125q0.5 -0.671875 0.5 -1.265625q0 -0.625 -0.453125 -1.046875q-0.453125 -0.4375 -1.171875 -0.4375q-0.765625 0 -1.21875 0.453125q-0.453125 0.453125 -0.46875 1.265625l-1.078125 -0.109375q0.109375 -1.21875 0.828125 -1.84375q0.734375 -0.640625 1.96875 -0.640625q1.234375 0 1.953125 0.6875q0.71875 0.6875 0.71875 1.703125q0 0.515625 -0.21875 1.015625q-0.203125 0.484375 -0.703125 1.046875q-0.484375 0.546875 -1.609375 1.5q-0.953125 0.796875 -1.234375 1.09375q-0.265625 0.28125 -0.4375 0.5625l4.21875 0zm3.2832031 1.015625l3.296875 -8.59375l1.21875 0l3.515625 8.59375l-1.28125 0l-1.015625 -2.609375l-3.578125 0l-0.953125 2.609375l-1.203125 0zm2.484375 -3.53125l2.90625 0l-0.890625 -2.375q-0.421875 -1.078125 -0.609375 -1.78125q-0.171875 0.828125 -0.46875 1.640625l-0.9375 2.515625zm6.0351562 1.265625l1.0625 -0.140625q0.171875 0.890625 0.609375 1.296875q0.4375 0.390625 1.0625 0.390625q0.75 0 1.265625 -0.515625q0.515625 -0.515625 0.515625 -1.28125q0 -0.71875 -0.484375 -1.1875q-0.46875 -0.484375 -1.203125 -0.484375q-0.296875 0 -0.75 0.125l0.125 -0.9375q0.109375 0.015625 0.171875 0.015625q0.671875 0 1.203125 -0.34375q0.546875 -0.359375 0.546875 -1.09375q0 -0.578125 -0.390625 -0.953125q-0.390625 -0.390625 -1.015625 -0.390625q-0.609375 0 -1.03125 0.390625q-0.40625 0.390625 -0.515625 1.15625l-1.0625 -0.1875q0.1875 -1.046875 0.875 -1.625q0.6875 -0.59375 1.703125 -0.59375q0.703125 0 1.296875 0.3125q0.59375 0.296875 0.90625 0.8125q0.3125 0.515625 0.3125 1.109375q0 0.546875 -0.296875 1.015625q-0.296875 0.453125 -0.875 0.71875q0.75 0.171875 1.171875 0.734375q0.421875 0.546875 0.421875 1.390625q0 1.125 -0.828125 1.90625q-0.8125 0.78125 -2.0625 0.78125q-1.125 0 -1.875 -0.671875q-0.75 -0.6875 -0.859375 -1.75z" fill-rule="nonzero"/><path fill="#000000" fill-opacity="0.0" d="m360.0 360.0l136.0 0l0 32.0l-136.0 0z" fill-rule="evenodd"/><path fill="#000000" d="m373.46875 380.52l-1.046875 0l0 -6.71875q-0.390625 0.359375 -1.015625 0.734375q-0.609375 0.359375 -1.09375 0.53125l0 -1.015625q0.875 -0.421875 1.53125 -1.0q0.671875 -0.59375 0.953125 -1.15625l0.671875 0l0 8.625zm5.783203 0l-1.046875 0l0 -6.71875q-0.390625 0.359375 -1.015625 0.734375q-0.609375 0.359375 -1.09375 0.53125l0 -1.015625q0.875 -0.421875 1.53125 -1.0q0.671875 -0.59375 0.953125 -1.15625l0.671875 0l0 8.625zm10.0078125 0l-1.046875 0l0 -6.71875q-0.390625 0.359375 -1.015625 0.734375q-0.609375 0.359375 -1.09375 0.53125l0 -1.015625q0.875 -0.421875 1.53125 -1.0q0.671875 -0.59375 0.953125 -1.15625l0.671875 0l0 8.625zm8.251953 -1.015625l0 1.015625l-5.6875 0q0 -0.375 0.125 -0.734375q0.21875 -0.578125 0.6875 -1.140625q0.484375 -0.5625 1.390625 -1.296875q1.40625 -1.15625 1.890625 -1.828125q0.5 -0.671875 0.5 -1.265625q0 -0.625 -0.453125 -1.046875q-0.453125 -0.4375 -1.171875 -0.4375q-0.765625 0 -1.21875 0.453125q-0.453125 0.453125 -0.46875 1.265625l-1.078125 -0.109375q0.109375 -1.21875 0.828125 -1.84375q0.734375 -0.640625 1.96875 -0.640625q1.234375 0 1.953125 0.6875q0.71875 0.6875 0.71875 1.703125q0 0.515625 -0.21875 1.015625q-0.203125 0.484375 -0.703125 1.046875q-0.484375 0.546875 -1.609375 1.5q-0.953125 0.796875 -1.234375 1.09375q-0.265625 0.28125 -0.4375 0.5625l4.21875 0zm8.4296875 1.015625l-1.046875 0l0 -6.71875q-0.390625 0.359375 -1.015625 0.734375q-0.609375 0.359375 -1.09375 0.53125l0 -1.015625q0.875 -0.421875 1.53125 -1.0q0.671875 -0.59375 0.953125 -1.15625l0.671875 0l0 8.625zm2.7050781 -2.265625l1.0625 -0.140625q0.171875 0.890625 0.609375 1.296875q0.4375 0.390625 1.0625 0.390625q0.75 0 1.265625 -0.515625q0.515625 -0.515625 0.515625 -1.28125q0 -0.71875 -0.484375 -1.1875q-0.46875 -0.484375 -1.203125 -0.484375q-0.296875 0 -0.75 0.125l0.125 -0.9375q0.109375 0.015625 0.171875 0.015625q0.671875 0 1.203125 -0.34375q0.546875 -0.359375 0.546875 -1.09375q0 -0.578125 -0.390625 -0.953125q-0.390625 -0.390625 -1.015625 -0.390625q-0.609375 0 -1.03125 0.390625q-0.40625 0.390625 -0.515625 1.15625l-1.0625 -0.1875q0.1875 -1.046875 0.875 -1.625q0.6875 -0.59375 1.703125 -0.59375q0.703125 0 1.296875 0.3125q0.59375 0.296875 0.90625 0.8125q0.3125 0.515625 0.3125 1.109375q0 0.546875 -0.296875 1.015625q-0.296875 0.453125 -0.875 0.71875q0.75 0.171875 1.171875 0.734375q0.421875 0.546875 0.421875 1.390625q0 1.125 -0.828125 1.90625q-0.8125 0.78125 -2.0625 0.78125q-1.125 0 -1.875 -0.671875q-0.75 -0.6875 -0.859375 -1.75z" fill-rule="nonzero"/><path fill="#000000" fill-opacity="0.0" d="m224.0 304.0c0 -28.0 28.0 -56.0 56.0 -56.0" fill-rule="evenodd"/><path stroke="#000000" stroke-width="4.0" stroke-linejoin="round" stroke-linecap="butt" d="m224.0 304.0c0 -28.0 28.0 -56.0 56.0 -56.0" fill-rule="evenodd"/><path fill="#000000" fill-opacity="0.0" d="m364.14453 326.96387l56.0 0l0 32.0l-56.0 0z" fill-rule="evenodd"/><path fill="#000000" d="m373.1289 347.48386l3.296875 -8.59375l1.21875 0l3.515625 8.59375l-1.28125 0l-1.015625 -2.609375l-3.578125 0l-0.953125 2.609375l-1.203125 0zm2.484375 -3.53125l2.90625 0l-0.890625 -2.375q-0.421875 -1.078125 -0.609375 -1.78125q-0.171875 0.828125 -0.46875 1.640625l-0.9375 2.515625zm6.3320312 3.53125l0 -6.21875l0.9375 0l0 0.875q0.6875 -1.015625 1.984375 -1.015625q0.5625 0 1.03125 0.203125q0.484375 0.203125 0.71875 0.53125q0.234375 0.328125 0.328125 0.765625q0.046875 0.296875 0.046875 1.03125l0 3.828125l-1.046875 0l0 -3.78125q0 -0.65625 -0.125 -0.96875q-0.125 -0.3125 -0.4375 -0.5q-0.3125 -0.203125 -0.734375 -0.203125q-0.671875 0 -1.171875 0.4375q-0.484375 0.421875 -0.484375 1.609375l0 3.40625l-1.046875 0zm8.970703 -0.9375l0.15625 0.921875q-0.453125 0.09375 -0.796875 0.09375q-0.578125 0 -0.890625 -0.171875q-0.3125 -0.1875 -0.453125 -0.484375q-0.125 -0.296875 -0.125 -1.25l0 -3.578125l-0.765625 0l0 -0.8125l0.765625 0l0 -1.546875l1.046875 -0.625l0 2.171875l1.0625 0l0 0.8125l-1.0625 0l0 3.640625q0 0.453125 0.046875 0.578125q0.0625 0.125 0.1875 0.203125q0.125 0.078125 0.359375 0.078125q0.1875 0 0.46875 -0.03125z" fill-rule="nonzero"/><path fill="#cfe2f3" d="m168.0 168.0l16.0 0l0 32.0l-16.0 0z" fill-rule="evenodd"/><path stroke="#000000" stroke-width="1.0" stroke-linejoin="round" stroke-linecap="butt" d="m168.0 168.0l16.0 0l0 32.0l-16.0 0z" fill-rule="evenodd"/><path fill="#cfe2f3" d="m232.0 168.0l16.0 0l0 32.0l-16.0 0z" fill-rule="evenodd"/><path stroke="#000000" stroke-width="1.0" stroke-linejoin="round" stroke-linecap="butt" d="m232.0 168.0l16.0 0l0 32.0l-16.0 0z" fill-rule="evenodd"/><path fill="#cfe2f3" d="m152.0 185.33353l0 0c0 -5.15477 4.1787567 -9.333527 9.333527 -9.333527l93.33295 0c2.4754028 0 4.8494263 0.98335266 6.5997925 2.7337189c1.7503967 1.7503815 2.7337341 4.124405 2.7337341 6.5998077l0 37.332947c0 5.15477 -4.178772 9.333527 -9.333527 9.333527l-93.33295 0c-5.15477 0 -9.333527 -4.1787567 -9.333527 -9.333527z" fill-rule="evenodd"/><path stroke="#000000" stroke-width="1.0" stroke-linejoin="round" stroke-linecap="butt" d="m152.0 185.33353l0 0c0 -5.15477 4.1787567 -9.333527 9.333527 -9.333527l93.33295 0c2.4754028 0 4.8494263 0.98335266 6.5997925 2.7337189c1.7503967 1.7503815 2.7337341 4.124405 2.7337341 6.5998077l0 37.332947c0 5.15477 -4.178772 9.333527 -9.333527 9.333527l-93.33295 0c-5.15477 0 -9.333527 -4.1787567 -9.333527 -9.333527z" fill-rule="evenodd"/><path fill="#000000" fill-opacity="0.0" d="m144.0 176.0l128.0 0l0 24.0l-128.0 0z" fill-rule="evenodd"/><path fill="#000000" d="m188.79349 202.92l0 -13.359375l9.015625 0l0 1.578125l-7.25 0l0 4.140625l6.265625 0l0 1.578125l-6.265625 0l0 6.0625l-1.765625 0zm17.427216 0l0 -1.421875q-1.125 1.640625 -3.0625 1.640625q-0.859375 0 -1.609375 -0.328125q-0.734375 -0.328125 -1.09375 -0.828125q-0.359375 -0.5 -0.5 -1.21875q-0.109375 -0.46875 -0.109375 -1.53125l0 -5.984375l1.640625 0l0 5.359375q0 1.28125 0.109375 1.734375q0.15625 0.640625 0.65625 1.015625q0.5 0.375 1.234375 0.375q0.734375 0 1.375 -0.375q0.65625 -0.390625 0.921875 -1.03125q0.265625 -0.65625 0.265625 -1.890625l0 -5.1875l1.640625 0l0 9.671875l-1.46875 0zm3.3913574 -2.890625l1.625 -0.25q0.125 0.96875 0.75 1.5q0.625 0.515625 1.75 0.515625q1.125 0 1.671875 -0.453125q0.546875 -0.46875 0.546875 -1.09375q0 -0.546875 -0.484375 -0.875q-0.328125 -0.21875 -1.671875 -0.546875q-1.8125 -0.46875 -2.515625 -0.796875q-0.6875 -0.328125 -1.046875 -0.90625q-0.359375 -0.59375 -0.359375 -1.3125q0 -0.640625 0.296875 -1.1875q0.296875 -0.5625 0.8125 -0.921875q0.375 -0.28125 1.03125 -0.46875q0.671875 -0.203125 1.421875 -0.203125q1.140625 0 2.0 0.328125q0.859375 0.328125 1.265625 0.890625q0.421875 0.5625 0.578125 1.5l-1.609375 0.21875q-0.109375 -0.75 -0.640625 -1.171875q-0.515625 -0.421875 -1.46875 -0.421875q-1.140625 0 -1.625 0.375q-0.46875 0.375 -0.46875 0.875q0 0.3125 0.1875 0.578125q0.203125 0.265625 0.640625 0.4375q0.234375 0.09375 1.4375 0.421875q1.75 0.453125 2.4375 0.75q0.6875 0.296875 1.078125 0.859375q0.390625 0.5625 0.390625 1.40625q0 0.828125 -0.484375 1.546875q-0.46875 0.71875 -1.375 1.125q-0.90625 0.390625 -2.046875 0.390625q-1.875 0 -2.875 -0.78125q-0.984375 -0.78125 -1.25 -2.328125zm16.609375 -0.21875l1.6875 0.203125q-0.40625 1.484375 -1.484375 2.3125q-1.078125 0.8125 -2.765625 0.8125q-2.125 0 -3.375 -1.296875q-1.234375 -1.3125 -1.234375 -3.671875q0 -2.453125 1.25 -3.796875q1.265625 -1.34375 3.265625 -1.34375q1.9375 0 3.15625 1.328125q1.234375 1.3125 1.234375 3.703125q0 0.15625 0 0.4375l-7.21875 0q0.09375 1.59375 0.90625 2.453125q0.8125 0.84375 2.015625 0.84375q0.90625 0 1.546875 -0.46875q0.640625 -0.484375 1.015625 -1.515625zm-5.390625 -2.65625l5.40625 0q-0.109375 -1.21875 -0.625 -1.828125q-0.78125 -0.953125 -2.03125 -0.953125q-1.125 0 -1.90625 0.765625q-0.765625 0.75 -0.84375 2.015625z" fill-rule="nonzero"/><path fill="#000000" d="m199.88724 217.68562q-1.015625 -0.375 -1.515625 -1.0625q-0.484375 -0.703125 -0.484375 -1.671875q0 -1.453125 1.046875 -2.4375q1.046875 -1.0 2.78125 -1.0q1.75 0 2.8125 1.015625q1.078125 1.015625 1.078125 2.46875q0 0.9375 -0.5 1.625q-0.484375 0.6875 -1.46875 1.0625q1.21875 0.390625 1.859375 1.28125q0.65625 0.890625 0.65625 2.140625q0 1.703125 -1.21875 2.875q-1.21875 1.171875 -3.1875 1.171875q-1.984375 0 -3.203125 -1.171875q-1.203125 -1.171875 -1.203125 -2.921875q0 -1.3125 0.65625 -2.1875q0.671875 -0.875 1.890625 -1.1875zm-0.328125 -2.78125q0 0.9375 0.609375 1.546875q0.609375 0.59375 1.59375 0.59375q0.9375 0 1.546875 -0.59375q0.609375 -0.59375 0.609375 -1.453125q0 -0.90625 -0.625 -1.515625q-0.625 -0.625 -1.5625 -0.625q-0.9375 0 -1.5625 0.609375q-0.609375 0.59375 -0.609375 1.4375zm-0.53125 6.15625q0 0.703125 0.328125 1.359375q0.34375 0.65625 1.0 1.015625q0.65625 0.359375 1.40625 0.359375q1.171875 0 1.9375 -0.75q0.765625 -0.75 0.765625 -1.921875q0 -1.1875 -0.796875 -1.953125q-0.78125 -0.78125 -1.953125 -0.78125q-1.15625 0 -1.921875 0.765625q-0.765625 0.765625 -0.765625 1.90625zm7.906952 3.859375l5.125 -13.359375l1.90625 0l5.46875 13.359375l-2.015625 0l-1.546875 -4.046875l-5.59375 0l-1.46875 4.046875l-1.875 0zm3.859375 -5.484375l4.53125 0l-1.40625 -3.703125q-0.625 -1.6875 -0.9375 -2.765625q-0.265625 1.28125 -0.71875 2.546875l-1.46875 3.921875z" fill-rule="nonzero"/><path fill="#000000" fill-opacity="0.0" d="m176.0 79.986694c0 22.003517 16.0 33.007034 32.0 44.007034c16.0 11.0 32.0 21.996475 32.0 43.992966" fill-rule="evenodd"/><path stroke="#ff0000" stroke-width="4.0" stroke-linejoin="round" stroke-linecap="butt" d="m176.0 79.986694c0 22.003517 16.0 33.007034 32.0 44.007034c16.0 11.0 32.0 21.996475 32.0 43.992966" fill-rule="evenodd"/><path fill="#cfe2f3" d="m64.0 168.0l16.0 0l0 32.0l-16.0 0z" fill-rule="evenodd"/><path stroke="#000000" stroke-width="1.0" stroke-linejoin="round" stroke-linecap="butt" d="m64.0 168.0l16.0 0l0 32.0l-16.0 0z" fill-rule="evenodd"/><path fill="#cfe2f3" d="m32.0 168.0l16.0 0l0 32.0l-16.0 0z" fill-rule="evenodd"/><path stroke="#000000" stroke-width="1.0" stroke-linejoin="round" stroke-linecap="butt" d="m32.0 168.0l16.0 0l0 32.0l-16.0 0z" fill-rule="evenodd"/><path fill="#cfe2f3" d="m96.0 168.0l16.0 0l0 32.0l-16.0 0z" fill-rule="evenodd"/><path stroke="#000000" stroke-width="1.0" stroke-linejoin="round" stroke-linecap="butt" d="m96.0 168.0l16.0 0l0 32.0l-16.0 0z" fill-rule="evenodd"/><path fill="#cfe2f3" d="m16.0 185.33353l0 0c0 -5.15477 4.1787586 -9.333527 9.333521 -9.333527l93.33296 0c2.4754028 0 4.8494186 0.98335266 6.5997925 2.7337189c1.7503738 1.7503815 2.7337265 4.124405 2.7337265 6.5998077l0 37.332947c0 5.15477 -4.1787567 9.333527 -9.333519 9.333527l-93.33296 0c-5.1547623 0 -9.333521 -4.1787567 -9.333521 -9.333527z" fill-rule="evenodd"/><path stroke="#000000" stroke-width="1.0" stroke-linejoin="round" stroke-linecap="butt" d="m16.0 185.33353l0 0c0 -5.15477 4.1787586 -9.333527 9.333521 -9.333527l93.33296 0c2.4754028 0 4.8494186 0.98335266 6.5997925 2.7337189c1.7503738 1.7503815 2.7337265 4.124405 2.7337265 6.5998077l0 37.332947c0 5.15477 -4.1787567 9.333527 -9.333519 9.333527l-93.33296 0c-5.1547623 0 -9.333521 -4.1787567 -9.333521 -9.333527z" fill-rule="evenodd"/><path fill="#000000" fill-opacity="0.0" d="m8.0 176.0l128.0 0l0 24.0l-128.0 0z" fill-rule="evenodd"/><path fill="#000000" d="m42.641785 202.92l0 -5.65625l-5.15625 -7.703125l2.15625 0l2.640625 4.03125q0.71875 1.125 1.34375 2.265625q0.609375 -1.046875 1.46875 -2.359375l2.578125 -3.9375l2.0625 0l-5.328125 7.703125l0 5.65625l-1.765625 0zm23.8125 0l0 -13.359375l5.015625 0q1.53125 0 2.453125 0.40625q0.921875 0.40625 1.4375 1.25q0.53125 0.84375 0.53125 1.765625q0 0.859375 -0.46875 1.625q-0.453125 0.75 -1.390625 1.203125q1.203125 0.359375 1.859375 1.21875q0.65625 0.859375 0.65625 2.015625q0 0.9375 -0.40625 1.75q-0.390625 0.796875 -0.984375 1.234375q-0.578125 0.4375 -1.453125 0.671875q-0.875 0.21875 -2.15625 0.21875l-5.09375 0zm1.78125 -7.75l2.875 0q1.1875 0 1.6875 -0.140625q0.671875 -0.203125 1.015625 -0.671875q0.34375 -0.46875 0.34375 -1.171875q0 -0.65625 -0.328125 -1.15625q-0.3125 -0.515625 -0.90625 -0.703125q-0.59375 -0.1875 -2.03125 -0.1875l-2.65625 0l0 4.03125zm0 6.171875l3.3125 0q0.859375 0 1.203125 -0.0625q0.609375 -0.109375 1.015625 -0.359375q0.421875 -0.265625 0.6875 -0.75q0.265625 -0.484375 0.265625 -1.125q0 -0.75 -0.390625 -1.296875q-0.375 -0.546875 -1.0625 -0.765625q-0.671875 -0.234375 -1.953125 -0.234375l-3.078125 0l0 4.59375zm26.32161 1.578125l0 -13.359375l5.921875 0q1.78125 0 2.703125 0.359375q0.9375 0.359375 1.484375 1.28125q0.5625 0.90625 0.5625 2.015625q0 1.40625 -0.921875 2.390625q-0.921875 0.96875 -2.84375 1.234375q0.703125 0.34375 1.078125 0.671875q0.765625 0.703125 1.453125 1.765625l2.328125 3.640625l-2.21875 0l-1.765625 -2.78125q-0.78125 -1.203125 -1.28125 -1.828125q-0.5 -0.640625 -0.90625 -0.890625q-0.390625 -0.265625 -0.796875 -0.359375q-0.296875 -0.078125 -0.984375 -0.078125l-2.046875 0l0 5.9375l-1.765625 0zm1.765625 -7.453125l3.796875 0q1.21875 0 1.890625 -0.25q0.6875 -0.265625 1.046875 -0.8125q0.359375 -0.546875 0.359375 -1.1875q0 -0.953125 -0.6875 -1.5625q-0.6875 -0.609375 -2.1875 -0.609375l-4.21875 0l0 4.421875z" fill-rule="nonzero"/><path fill="#000000" d="m26.166687 220.62312l1.65625 -0.140625q0.125 1.0 0.546875 1.640625q0.4375 0.640625 1.34375 1.046875q0.921875 0.390625 2.0625 0.390625q1.0 0 1.78125 -0.296875q0.78125 -0.296875 1.15625 -0.8125q0.375 -0.53125 0.375 -1.15625q0 -0.625 -0.375 -1.09375q-0.359375 -0.46875 -1.1875 -0.796875q-0.546875 -0.203125 -2.390625 -0.640625q-1.828125 -0.453125 -2.5625 -0.84375q-0.96875 -0.5 -1.4375 -1.234375q-0.46875 -0.75 -0.46875 -1.671875q0 -1.0 0.578125 -1.875q0.578125 -0.890625 1.671875 -1.34375q1.109375 -0.453125 2.453125 -0.453125q1.484375 0 2.609375 0.484375q1.140625 0.46875 1.75 1.40625q0.609375 0.921875 0.65625 2.09375l-1.6875 0.125q-0.140625 -1.265625 -0.9375 -1.90625q-0.78125 -0.65625 -2.3125 -0.65625q-1.609375 0 -2.34375 0.59375q-0.734375 0.59375 -0.734375 1.421875q0 0.71875 0.53125 1.171875q0.5 0.46875 2.65625 0.96875q2.15625 0.484375 2.953125 0.84375q1.171875 0.53125 1.71875 1.359375q0.5625 0.828125 0.5625 1.90625q0 1.0625 -0.609375 2.015625q-0.609375 0.9375 -1.75 1.46875q-1.140625 0.515625 -2.578125 0.515625q-1.8125 0 -3.046875 -0.53125q-1.21875 -0.53125 -1.921875 -1.59375q-0.6875 -1.0625 -0.71875 -2.40625zm19.162323 4.296875l0 -1.421875q-1.125 1.640625 -3.0625 1.640625q-0.859375 0 -1.609375 -0.328125q-0.734375 -0.328125 -1.09375 -0.828125q-0.359375 -0.5 -0.5 -1.21875q-0.109375 -0.46875 -0.109375 -1.53125l0 -5.984375l1.640625 0l0 5.359375q0 1.28125 0.109375 1.734375q0.15625 0.640625 0.65625 1.015625q0.5 0.375 1.234375 0.375q0.734375 0 1.375 -0.375q0.65625 -0.390625 0.921875 -1.03125q0.265625 -0.65625 0.265625 -1.890625l0 -5.1875l1.640625 0l0 9.671875l-1.46875 0zm4.047592 0l0 -9.671875l1.46875 0l0 1.375q1.0625 -1.59375 3.078125 -1.59375q0.875 0 1.609375 0.3125q0.734375 0.3125 1.09375 0.828125q0.375 0.5 0.515625 1.203125q0.09375 0.453125 0.09375 1.59375l0 5.953125l-1.640625 0l0 -5.890625q0 -1.0 -0.203125 -1.484375q-0.1875 -0.5 -0.671875 -0.796875q-0.484375 -0.296875 -1.140625 -0.296875q-1.046875 0 -1.8125 0.671875q-0.75 0.65625 -0.75 2.515625l0 5.28125l-1.640625 0zm10.500717 0l0 -13.359375l1.78125 0l0 6.625l6.625 -6.625l2.390625 0l-5.59375 5.421875l5.84375 7.9375l-2.328125 0l-4.765625 -6.765625l-2.171875 2.140625l0 4.625l-1.78125 0zm18.943573 -3.109375l1.6875 0.203125q-0.40625 1.484375 -1.484375 2.3125q-1.078125 0.8125 -2.765625 0.8125q-2.125 0 -3.375 -1.296875q-1.234375 -1.3125 -1.234375 -3.671875q0 -2.453125 1.25 -3.796875q1.265625 -1.34375 3.265625 -1.34375q1.9375 0 3.15625 1.328125q1.234375 1.3125 1.234375 3.703125q0 0.15625 0 0.4375l-7.21875 0q0.09375 1.59375 0.90625 2.453125q0.8125 0.84375 2.015625 0.84375q0.90625 0 1.546875 -0.46875q0.640625 -0.484375 1.015625 -1.515625zm-5.390625 -2.65625l5.40625 0q-0.109375 -1.21875 -0.625 -1.828125q-0.78125 -0.953125 -2.03125 -0.953125q-1.125 0 -1.90625 0.765625q-0.765625 0.75 -0.84375 2.015625zm15.766342 2.65625l1.6875 0.203125q-0.40625 1.484375 -1.484375 2.3125q-1.078125 0.8125 -2.765625 0.8125q-2.125 0 -3.375 -1.296875q-1.234375 -1.3125 -1.234375 -3.671875q0 -2.453125 1.25 -3.796875q1.265625 -1.34375 3.265625 -1.34375q1.9375 0 3.15625 1.328125q1.234375 1.3125 1.234375 3.703125q0 0.15625 0 0.4375l-7.21875 0q0.09375 1.59375 0.90625 2.453125q0.8125 0.84375 2.015625 0.84375q0.90625 0 1.546875 -0.46875q0.640625 -0.484375 1.015625 -1.515625zm-5.390625 -2.65625l5.40625 0q-0.109375 -1.21875 -0.625 -1.828125q-0.78125 -0.953125 -2.03125 -0.953125q-1.125 0 -1.90625 0.765625q-0.765625 0.75 -0.84375 2.015625zm9.141342 9.46875l0 -13.375l1.484375 0l0 1.25q0.53125 -0.734375 1.1875 -1.09375q0.671875 -0.375 1.625 -0.375q1.234375 0 2.171875 0.640625q0.953125 0.625 1.4375 1.796875q0.484375 1.15625 0.484375 2.546875q0 1.484375 -0.53125 2.671875q-0.53125 1.1875 -1.546875 1.828125q-1.015625 0.625 -2.140625 0.625q-0.8125 0 -1.46875 -0.34375q-0.65625 -0.34375 -1.0625 -0.875l0 4.703125l-1.640625 0zm1.484375 -8.484375q0 1.859375 0.75 2.765625q0.765625 0.890625 1.828125 0.890625q1.09375 0 1.875 -0.921875q0.78125 -0.9375 0.78125 -2.875q0 -1.84375 -0.765625 -2.765625q-0.75 -0.921875 -1.8125 -0.921875q-1.046875 0 -1.859375 0.984375q-0.796875 0.96875 -0.796875 2.84375zm15.516342 1.671875l1.6875 0.203125q-0.40625 1.484375 -1.484375 2.3125q-1.078125 0.8125 -2.765625 0.8125q-2.125 0 -3.375 -1.296875q-1.234375 -1.3125 -1.234375 -3.671875q0 -2.453125 1.25 -3.796875q1.265625 -1.34375 3.265625 -1.34375q1.9375 0 3.15625 1.328125q1.234375 1.3125 1.234375 3.703125q0 0.15625 0 0.4375l-7.21875 0q0.09375 1.59375 0.90625 2.453125q0.8125 0.84375 2.015625 0.84375q0.90625 0 1.546875 -0.46875q0.640625 -0.484375 1.015625 -1.515625zm-5.390625 -2.65625l5.40625 0q-0.109375 -1.21875 -0.625 -1.828125q-0.78125 -0.953125 -2.03125 -0.953125q-1.125 0 -1.90625 0.765625q-0.765625 0.75 -0.84375 2.015625zm9.125717 5.765625l0 -9.671875l1.46875 0l0 1.46875q0.5625 -1.03125 1.03125 -1.359375q0.484375 -0.328125 1.0625 -0.328125q0.828125 0 1.6875 0.53125l-0.5625 1.515625q-0.609375 -0.359375 -1.203125 -0.359375q-0.546875 0 -0.96875 0.328125q-0.421875 0.328125 -0.609375 0.890625q-0.28125 0.875 -0.28125 1.921875l0 5.0625l-1.625 0z" fill-rule="nonzero"/><path fill="#000000" fill-opacity="0.0" d="m40.0 168.0c0 -22.0 0.01574707 -33.0 0.031497955 -44.0c0.01574707 -11.0 0.03149414 -22.0 0.03149414 -44.0" fill-rule="evenodd"/><path stroke="#ffff00" stroke-width="4.0" stroke-linejoin="round" stroke-linecap="butt" d="m40.0 168.0c0 -22.0 0.01574707 -33.0 0.031497955 -44.0c0.01574707 -11.0 0.03149414 -22.0 0.03149414 -44.0" fill-rule="evenodd"/><path fill="#000000" fill-opacity="0.0" d="m104.0 80.0c0 22.0 -8.0 33.0 -16.0 44.0c-8.0 11.0 -16.0 22.0 -16.0 44.0" fill-rule="evenodd"/><path stroke="#000000" stroke-width="4.0" stroke-linejoin="round" stroke-linecap="butt" d="m104.0 80.0c0 22.0 -8.0 33.0 -16.0 44.0c-8.0 11.0 -16.0 22.0 -16.0 44.0" fill-rule="evenodd"/><path fill="#000000" fill-opacity="0.0" d="m296.0 78.55118l400.0 0l0 32.0l-400.0 0z" fill-rule="evenodd"/><path fill="#000000" d="m398.2717 105.471176l0 -13.25l2.6875 0l0 11.0l6.703125 0l0 2.25l-9.390625 0zm11.317841 0l0 -13.359375l9.90625 0l0 2.265625l-7.21875 0l0 2.953125l6.71875 0l0 2.25l-6.71875 0l0 3.640625l7.46875 0l0 2.25l-10.15625 0zm15.8498535 0l-4.78125 -13.359375l2.9375 0l3.375 9.890625l3.265625 -9.890625l2.859375 0l-4.78125 13.359375l-2.875 0zm9.0372925 0l0 -13.359375l9.90625 0l0 2.265625l-7.21875 0l0 2.953125l6.71875 0l0 2.25l-6.71875 0l0 3.640625l7.46875 0l0 2.25l-10.15625 0zm12.5217285 0l0 -13.25l2.6875 0l0 11.0l6.703125 0l0 2.25l-9.390625 0zm16.13266 0l0 -13.359375l4.03125 0l2.421875 9.109375l2.390625 -9.109375l4.046875 0l0 13.359375l-2.5 0l0 -10.515625l-2.65625 10.515625l-2.59375 0l-2.640625 -10.515625l0 10.515625l-2.5 0zm15.025177 -6.59375q0 -2.046875 0.609375 -3.421875q0.453125 -1.03125 1.234375 -1.828125q0.796875 -0.8125 1.734375 -1.203125q1.25 -0.53125 2.875 -0.53125q2.953125 0 4.71875 1.828125q1.78125 1.828125 1.78125 5.09375q0 3.234375 -1.765625 5.0625q-1.75 1.828125 -4.6875 1.828125q-2.984375 0 -4.75 -1.8125q-1.75 -1.828125 -1.75 -5.015625zm2.78125 -0.09375q0 2.265625 1.046875 3.4375q1.046875 1.171875 2.65625 1.171875q1.609375 0 2.640625 -1.15625q1.046875 -1.171875 1.046875 -3.484375q0 -2.296875 -1.015625 -3.421875q-1.0 -1.140625 -2.671875 -1.140625q-1.671875 0 -2.6875 1.15625q-1.015625 1.140625 -1.015625 3.4375zm12.308289 6.6875l0 -13.359375l2.625 0l5.453125 8.921875l0 -8.921875l2.515625 0l0 13.359375l-2.703125 0l-5.390625 -8.703125l0 8.703125l-2.5 0zm13.363586 0l0 -13.359375l2.6875 0l0 13.359375l-2.6875 0zm8.261414 0l0 -11.09375l-3.953125 0l0 -2.265625l10.609375 0l0 2.265625l-3.953125 0l0 11.09375l-2.703125 0zm7.511902 -6.59375q0 -2.046875 0.609375 -3.421875q0.453125 -1.03125 1.234375 -1.828125q0.796875 -0.8125 1.734375 -1.203125q1.25 -0.53125 2.875 -0.53125q2.953125 0 4.71875 1.828125q1.78125 1.828125 1.78125 5.09375q0 3.234375 -1.765625 5.0625q-1.75 1.828125 -4.6875 1.828125q-2.984375 0 -4.75 -1.8125q-1.75 -1.828125 -1.75 -5.015625zm2.78125 -0.09375q0 2.265625 1.046875 3.4375q1.046875 1.171875 2.65625 1.171875q1.609375 0 2.640625 -1.15625q1.046875 -1.171875 1.046875 -3.484375q0 -2.296875 -1.015625 -3.421875q-1.0 -1.140625 -2.671875 -1.140625q-1.671875 0 -2.6875 1.15625q-1.015625 1.140625 -1.015625 3.4375zm12.277039 6.6875l0 -13.359375l5.6875 0q2.140625 0 3.109375 0.359375q0.96875 0.359375 1.546875 1.28125q0.578125 0.921875 0.578125 2.109375q0 1.5 -0.890625 2.484375q-0.875 0.96875 -2.625 1.234375q0.875 0.5 1.4375 1.125q0.578125 0.609375 1.53125 2.15625l1.640625 2.609375l-3.234375 0l-1.9375 -2.90625q-1.046875 -1.5625 -1.4375 -1.96875q-0.375 -0.40625 -0.8125 -0.546875q-0.421875 -0.15625 -1.34375 -0.15625l-0.546875 0l0 5.578125l-2.703125 0zm2.703125 -7.703125l2.0 0q1.9375 0 2.421875 -0.15625q0.484375 -0.171875 0.75 -0.578125q0.28125 -0.40625 0.28125 -1.0q0 -0.671875 -0.359375 -1.078125q-0.359375 -0.421875 -1.015625 -0.53125q-0.328125 -0.046875 -1.96875 -0.046875l-2.109375 0l0 3.390625zm15.953125 -5.65625l5.34375 0q1.59375 0 2.359375 0.140625q0.78125 0.125 1.390625 0.546875q0.625 0.421875 1.03125 1.125q0.40625 0.6875 0.40625 1.546875q0 0.9375 -0.5 1.734375q-0.5 0.78125 -1.375 1.171875q1.21875 0.359375 1.875 1.21875q0.65625 0.84375 0.65625 2.0q0 0.921875 -0.421875 1.78125q-0.421875 0.859375 -1.15625 1.375q-0.734375 0.515625 -1.796875 0.625q-0.6875 0.078125 -3.265625 0.09375l-4.546875 0l0 -13.359375zm2.703125 2.234375l0 3.078125l1.765625 0q1.578125 0 1.953125 -0.046875q0.703125 -0.078125 1.09375 -0.46875q0.40625 -0.40625 0.40625 -1.046875q0 -0.625 -0.34375 -1.0q-0.34375 -0.390625 -1.015625 -0.484375q-0.40625 -0.03125 -2.3125 -0.03125l-1.546875 0zm0 5.296875l0 3.578125l2.5 0q1.453125 0 1.84375 -0.078125q0.609375 -0.109375 0.984375 -0.53125q0.375 -0.421875 0.375 -1.140625q0 -0.59375 -0.296875 -1.015625q-0.28125 -0.421875 -0.84375 -0.609375q-0.546875 -0.203125 -2.390625 -0.203125l-2.171875 0zm10.222961 -0.765625q0 -2.046875 0.609375 -3.421875q0.453125 -1.03125 1.234375 -1.828125q0.796875 -0.8125 1.734375 -1.203125q1.25 -0.53125 2.875 -0.53125q2.953125 0 4.71875 1.828125q1.78125 1.828125 1.78125 5.09375q0 3.234375 -1.765625 5.0625q-1.75 1.828125 -4.6875 1.828125q-2.984375 0 -4.75 -1.8125q-1.75 -1.828125 -1.75 -5.015625zm2.78125 -0.09375q0 2.265625 1.046875 3.4375q1.046875 1.171875 2.65625 1.171875q1.609375 0 2.640625 -1.15625q1.046875 -1.171875 1.046875 -3.484375q0 -2.296875 -1.015625 -3.421875q-1.0 -1.140625 -2.671875 -1.140625q-1.671875 0 -2.6875 1.15625q-1.015625 1.140625 -1.015625 3.4375zm10.917664 6.6875l4.5625 -6.96875l-4.140625 -6.390625l3.15625 0l2.6875 4.296875l2.609375 -4.296875l3.125 0l-4.140625 6.484375l4.5625 6.875l-3.25 0l-2.96875 -4.625l-2.96875 4.625l-3.234375 0z" fill-rule="nonzero"/><path fill="#000000" fill-opacity="0.0" d="m376.0 398.55118c0 12.5000305 26.0 46.00009 52.0 25.000092c26.0 -21.0 52.0 -96.50006 52.0 -193.00009" fill-rule="evenodd"/><path stroke="#ffff00" stroke-width="3.0" stroke-linejoin="round" stroke-linecap="butt" d="m376.0 398.55118c0 12.5000305 26.0 46.00009 52.0 25.000092c26.0 -21.0 52.0 -96.50006 52.0 -193.00009" fill-rule="evenodd"/><path fill="#cfe2f3" d="m280.0 128.0l0 0c0 -8.8365555 3.581726 -16.0 8.0 -16.0l0 0c2.1217346 0 4.156555 1.6857071 5.6568604 4.6862946c1.5002747 3.0005798 2.3431396 7.070244 2.3431396 11.313705l0 0c0 8.836563 -3.581726 16.0 -8.0 16.0l0 0c-4.418274 0 -8.0 -7.163437 -8.0 -16.0z" fill-rule="evenodd"/><path stroke="#000000" stroke-width="1.0" stroke-linejoin="round" stroke-linecap="butt" d="m280.0 128.0l0 0c0 -8.8365555 3.581726 -16.0 8.0 -16.0l0 0c2.1217346 0 4.156555 1.6857071 5.6568604 4.6862946c1.5002747 3.0005798 2.3431396 7.070244 2.3431396 11.313705l0 0c0 8.836563 -3.581726 16.0 -8.0 16.0l0 0c-4.418274 0 -8.0 -7.163437 -8.0 -16.0z" fill-rule="evenodd"/><path fill="#000000" fill-opacity="0.0" d="m288.0 128.0l8.0 0l0 8.0l-8.0 0z" fill-rule="evenodd"/><path fill="#000000" fill-opacity="0.0" d="m280.0 120.0l8.0 0l0 8.0l-8.0 0z" fill-rule="evenodd"/><path fill="#000000" fill-opacity="0.0" d="m288.0 120.0l8.0 0l0 8.0l-8.0 0z" fill-rule="evenodd"/><path fill="#000000" fill-opacity="0.0" d="m280.0 128.0l8.0 0l0 8.0l-8.0 0z" fill-rule="evenodd"/><path fill="#000000" fill-opacity="0.0" d="m416.0 166.55118c0 -17.275589 -60.0 -34.551178 -120.0 -34.551178" fill-rule="evenodd"/><path stroke="#999999" stroke-width="4.0" stroke-linejoin="round" stroke-linecap="butt" d="m416.0 166.55118c0 -17.275589 -60.0 -34.551178 -120.0 -34.551178" fill-rule="evenodd"/><path fill="#000000" fill-opacity="0.0" d="m296.0 124.0c76.0 0 152.0 21.275589 152.0 42.551178" fill-rule="evenodd"/><path stroke="#000000" stroke-width="4.0" stroke-linejoin="round" stroke-linecap="butt" d="m296.0 124.0c76.0 0 152.0 21.275589 152.0 42.551178" fill-rule="evenodd"/><path fill="#cfe2f3" d="m696.0 128.0l0 0c0 -8.8365555 3.581726 -16.0 8.0 -16.0l0 0c2.121704 0 4.156555 1.6857071 5.6568604 4.6862946c1.5003052 3.0005798 2.3431396 7.070244 2.3431396 11.313705l0 0c0 8.836563 -3.581726 16.0 -8.0 16.0l0 0c-4.418274 0 -8.0 -7.163437 -8.0 -16.0z" fill-rule="evenodd"/><path stroke="#000000" stroke-width="1.0" stroke-linejoin="round" stroke-linecap="butt" d="m696.0 128.0l0 0c0 -8.8365555 3.581726 -16.0 8.0 -16.0l0 0c2.121704 0 4.156555 1.6857071 5.6568604 4.6862946c1.5003052 3.0005798 2.3431396 7.070244 2.3431396 11.313705l0 0c0 8.836563 -3.581726 16.0 -8.0 16.0l0 0c-4.418274 0 -8.0 -7.163437 -8.0 -16.0z" fill-rule="evenodd"/><path fill="#000000" fill-opacity="0.0" d="m704.0 128.0l8.0 0l0 8.0l-8.0 0z" fill-rule="evenodd"/><path fill="#000000" fill-opacity="0.0" d="m696.0 120.0l8.0 0l0 8.0l-8.0 0z" fill-rule="evenodd"/><path fill="#000000" fill-opacity="0.0" d="m704.0 120.0l8.0 0l0 8.0l-8.0 0z" fill-rule="evenodd"/><path fill="#000000" fill-opacity="0.0" d="m696.0 128.0l8.0 0l0 8.0l-8.0 0z" fill-rule="evenodd"/><path fill="#000000" fill-opacity="0.0" d="m808.0 80.0c0 26.0 -48.0 52.0 -96.0 52.0" fill-rule="evenodd"/><path stroke="#999999" stroke-width="4.0" stroke-linejoin="round" stroke-linecap="butt" d="m808.0 80.0c0 26.0 -48.0 52.0 -96.0 52.0" fill-rule="evenodd"/><path fill="#000000" fill-opacity="0.0" d="m744.0 80.0c0 22.0 -16.0 44.0 -32.0 44.0" fill-rule="evenodd"/><path stroke="#000000" stroke-width="4.0" stroke-linejoin="round" stroke-linecap="butt" d="m744.0 80.0c0 22.0 -16.0 44.0 -32.0 44.0" fill-rule="evenodd"/><path fill="#cfe2f3" d="m280.0 248.0l0 0c0 -8.836563 3.581726 -16.0 8.0 -16.0l0 0c2.1217346 0 4.156555 1.6857147 5.6568604 4.6862946c1.5002747 3.0005798 2.3431396 7.070236 2.3431396 11.313705l0 0c0 8.836548 -3.581726 16.0 -8.0 16.0l0 0c-4.418274 0 -8.0 -7.163452 -8.0 -16.0z" fill-rule="evenodd"/><path stroke="#000000" stroke-width="1.0" stroke-linejoin="round" stroke-linecap="butt" d="m280.0 248.0l0 0c0 -8.836563 3.581726 -16.0 8.0 -16.0l0 0c2.1217346 0 4.156555 1.6857147 5.6568604 4.6862946c1.5002747 3.0005798 2.3431396 7.070236 2.3431396 11.313705l0 0c0 8.836548 -3.581726 16.0 -8.0 16.0l0 0c-4.418274 0 -8.0 -7.163452 -8.0 -16.0z" fill-rule="evenodd"/><path fill="#000000" fill-opacity="0.0" d="m296.0 248.0c14.0 0 21.0 24.0 28.0 48.0c7.0 24.0 14.0 48.0 28.0 48.0" fill-rule="evenodd"/><path stroke="#000000" stroke-width="4.0" stroke-linejoin="round" stroke-linecap="butt" d="m296.0 248.0c14.0 0 21.0 24.0 28.0 48.0c7.0 24.0 14.0 48.0 28.0 48.0" fill-rule="evenodd"/><path fill="#cfe2f3" d="m216.0 336.0l16.0 0l0 -32.0l-16.0 0z" fill-rule="evenodd"/><path stroke="#000000" stroke-width="1.0" stroke-linejoin="round" stroke-linecap="butt" d="m216.0 336.0l16.0 0l0 -32.0l-16.0 0z" fill-rule="evenodd"/><path fill="#cfe2f3" d="m180.71391 329.33353l0 0c0 -5.1547546 4.1787567 -9.333527 9.333511 -9.333527l64.60855 0c2.4754028 0 4.8494263 0.9833374 6.5997925 2.7337341c1.7503967 1.7503662 2.7337341 4.1243896 2.7337341 6.5997925l0 37.332947c0 5.1547546 -4.178772 9.333527 -9.333527 9.333527l-64.60855 0c-5.1547546 0 -9.333511 -4.178772 -9.333511 -9.333527z" fill-rule="evenodd"/><path stroke="#000000" stroke-width="1.0" stroke-linejoin="round" stroke-linecap="butt" d="m180.71391 329.33353l0 0c0 -5.1547546 4.1787567 -9.333527 9.333511 -9.333527l64.60855 0c2.4754028 0 4.8494263 0.9833374 6.5997925 2.7337341c1.7503967 1.7503662 2.7337341 4.1243896 2.7337341 6.5997925l0 37.332947c0 5.1547546 -4.178772 9.333527 -9.333527 9.333527l-64.60855 0c-5.1547546 0 -9.333511 -4.178772 -9.333511 -9.333527z" fill-rule="evenodd"/><path fill="#000000" fill-opacity="0.0" d="m168.0 320.0l112.0 0l0 24.0l-112.0 0z" fill-rule="evenodd"/><path fill="#000000" d="m189.21602 346.91998l5.125 -13.359375l1.90625 0l5.46875 13.359375l-2.015625 0l-1.546875 -4.046875l-5.59375 0l-1.46875 4.046875l-1.875 0zm3.859375 -5.484375l4.53125 0l-1.40625 -3.703125q-0.625 -1.6875 -0.9375 -2.765625q-0.265625 1.28125 -0.71875 2.546875l-1.46875 3.921875zm9.849823 5.484375l0 -9.671875l1.46875 0l0 1.375q1.0625 -1.59375 3.078125 -1.59375q0.875 0 1.609375 0.3125q0.734375 0.3125 1.09375 0.828125q0.375 0.5 0.515625 1.203125q0.09375 0.453125 0.09375 1.59375l0 5.953125l-1.640625 0l0 -5.890625q0 -1.0 -0.203125 -1.484375q-0.1875 -0.5 -0.671875 -0.796875q-0.484375 -0.296875 -1.140625 -0.296875q-1.046875 0 -1.8125 0.671875q-0.75 0.65625 -0.75 2.515625l0 5.28125l-1.640625 0zm13.953842 -1.46875l0.234375 1.453125q-0.6875 0.140625 -1.234375 0.140625q-0.890625 0 -1.390625 -0.28125q-0.484375 -0.28125 -0.6875 -0.734375q-0.203125 -0.46875 -0.203125 -1.9375l0 -5.578125l-1.203125 0l0 -1.265625l1.203125 0l0 -2.390625l1.625 -0.984375l0 3.375l1.65625 0l0 1.265625l-1.65625 0l0 5.671875q0 0.6875 0.078125 0.890625q0.09375 0.203125 0.28125 0.328125q0.203125 0.109375 0.578125 0.109375q0.265625 0 0.71875 -0.0625zm8.230179 -1.640625l1.6875 0.203125q-0.40625 1.484375 -1.484375 2.3125q-1.078125 0.8125 -2.765625 0.8125q-2.125 0 -3.375 -1.296875q-1.234375 -1.3125 -1.234375 -3.671875q0 -2.453125 1.25 -3.796875q1.265625 -1.34375 3.265625 -1.34375q1.9375 0 3.15625 1.328125q1.234375 1.3125 1.234375 3.703125q0 0.15625 0 0.4375l-7.21875 0q0.09375 1.59375 0.90625 2.453125q0.8125 0.84375 2.015625 0.84375q0.90625 0 1.546875 -0.46875q0.640625 -0.484375 1.015625 -1.515625zm-5.390625 -2.65625l5.40625 0q-0.109375 -1.21875 -0.625 -1.828125q-0.78125 -0.953125 -2.03125 -0.953125q-1.125 0 -1.90625 0.765625q-0.765625 0.75 -0.84375 2.015625zm9.141342 5.765625l0 -9.671875l1.46875 0l0 1.375q1.0625 -1.59375 3.078125 -1.59375q0.875 0 1.609375 0.3125q0.734375 0.3125 1.09375 0.828125q0.375 0.5 0.515625 1.203125q0.09375 0.453125 0.09375 1.59375l0 5.953125l-1.640625 0l0 -5.890625q0 -1.0 -0.203125 -1.484375q-0.1875 -0.5 -0.671875 -0.796875q-0.484375 -0.296875 -1.140625 -0.296875q-1.046875 0 -1.8125 0.671875q-0.75 0.65625 -0.75 2.515625l0 5.28125l-1.640625 0zm10.375717 0l0 -9.671875l1.46875 0l0 1.375q1.0625 -1.59375 3.078125 -1.59375q0.875 0 1.609375 0.3125q0.734375 0.3125 1.09375 0.828125q0.375 0.5 0.515625 1.203125q0.09375 0.453125 0.09375 1.59375l0 5.953125l-1.640625 0l0 -5.890625q0 -1.0 -0.203125 -1.484375q-0.1875 -0.5 -0.671875 -0.796875q-0.484375 -0.296875 -1.140625 -0.296875q-1.046875 0 -1.8125 0.671875q-0.75 0.65625 -0.75 2.515625l0 5.28125l-1.640625 0zm16.688217 -1.1875q-0.921875 0.765625 -1.765625 1.09375q-0.828125 0.3125 -1.796875 0.3125q-1.59375 0 -2.453125 -0.78125q-0.859375 -0.78125 -0.859375 -1.984375q0 -0.71875 0.328125 -1.296875q0.328125 -0.59375 0.84375 -0.9375q0.53125 -0.359375 1.1875 -0.546875q0.46875 -0.125 1.453125 -0.25q1.984375 -0.234375 2.921875 -0.5625q0.015625 -0.34375 0.015625 -0.421875q0 -1.0 -0.46875 -1.421875q-0.625 -0.546875 -1.875 -0.546875q-1.15625 0 -1.703125 0.40625q-0.546875 0.40625 -0.8125 1.421875l-1.609375 -0.21875q0.21875 -1.015625 0.71875 -1.640625q0.5 -0.640625 1.453125 -0.984375q0.953125 -0.34375 2.1875 -0.34375q1.25 0 2.015625 0.296875q0.78125 0.28125 1.140625 0.734375q0.375 0.4375 0.515625 1.109375q0.078125 0.421875 0.078125 1.515625l0 2.1875q0 2.28125 0.109375 2.890625q0.109375 0.59375 0.40625 1.15625l-1.703125 0q-0.265625 -0.515625 -0.328125 -1.1875zm-0.140625 -3.671875q-0.890625 0.375 -2.671875 0.625q-1.015625 0.140625 -1.4375 0.328125q-0.421875 0.1875 -0.65625 0.53125q-0.21875 0.34375 -0.21875 0.78125q0 0.65625 0.5 1.09375q0.5 0.4375 1.453125 0.4375q0.9375 0 1.671875 -0.40625q0.75 -0.421875 1.09375 -1.140625q0.265625 -0.5625 0.265625 -1.640625l0 -0.609375z" fill-rule="nonzero"/><path fill="#cfe2f3" d="m696.0 328.0l0 0c0 -8.836548 3.581726 -16.0 8.0 -16.0l0 0c2.121704 0 4.156555 1.6856995 5.6568604 4.6862793c1.5003052 3.0005798 2.3431396 7.0702515 2.3431396 11.313721l0 0c0 8.836548 -3.581726 16.0 -8.0 16.0l0 0c-4.418274 0 -8.0 -7.163452 -8.0 -16.0z" fill-rule="evenodd"/><path stroke="#000000" stroke-width="1.0" stroke-linejoin="round" stroke-linecap="butt" d="m696.0 328.0l0 0c0 -8.836548 3.581726 -16.0 8.0 -16.0l0 0c2.121704 0 4.156555 1.6856995 5.6568604 4.6862793c1.5003052 3.0005798 2.3431396 7.0702515 2.3431396 11.313721l0 0c0 8.836548 -3.581726 16.0 -8.0 16.0l0 0c-4.418274 0 -8.0 -7.163452 -8.0 -16.0z" fill-rule="evenodd"/><path fill="#000000" fill-opacity="0.0" d="m704.0 328.0l8.0 0l0 8.0l-8.0 0z" fill-rule="evenodd"/><path fill="#000000" fill-opacity="0.0" d="m696.0 320.0l8.0 0l0 8.0l-8.0 0z" fill-rule="evenodd"/><path fill="#000000" fill-opacity="0.0" d="m704.0 320.0l8.0 0l0 8.0l-8.0 0z" fill-rule="evenodd"/><path fill="#000000" fill-opacity="0.0" d="m696.0 328.0l8.0 0l0 8.0l-8.0 0z" fill-rule="evenodd"/><path fill="#cfe2f3" d="m696.0 376.0l0 0c0 -8.836548 3.581726 -16.0 8.0 -16.0l0 0c2.121704 0 4.156555 1.6856995 5.6568604 4.6862793c1.5003052 3.0005798 2.3431396 7.0702515 2.3431396 11.313721l0 0c0 8.836548 -3.581726 16.0 -8.0 16.0l0 0c-4.418274 0 -8.0 -7.163452 -8.0 -16.0z" fill-rule="evenodd"/><path stroke="#000000" stroke-width="1.0" stroke-linejoin="round" stroke-linecap="butt" d="m696.0 376.0l0 0c0 -8.836548 3.581726 -16.0 8.0 -16.0l0 0c2.121704 0 4.156555 1.6856995 5.6568604 4.6862793c1.5003052 3.0005798 2.3431396 7.0702515 2.3431396 11.313721l0 0c0 8.836548 -3.581726 16.0 -8.0 16.0l0 0c-4.418274 0 -8.0 -7.163452 -8.0 -16.0z" fill-rule="evenodd"/><path fill="#000000" fill-opacity="0.0" d="m704.0 376.0l8.0 0l0 8.0l-8.0 0z" fill-rule="evenodd"/><path fill="#000000" fill-opacity="0.0" d="m696.0 368.0l8.0 0l0 8.0l-8.0 0z" fill-rule="evenodd"/><path fill="#000000" fill-opacity="0.0" d="m704.0 368.0l8.0 0l0 8.0l-8.0 0z" fill-rule="evenodd"/><path fill="#000000" fill-opacity="0.0" d="m696.0 376.0l8.0 0l0 8.0l-8.0 0z" fill-rule="evenodd"/><path fill="#000000" fill-opacity="0.0" d="m544.0 166.55118c0 -12.499649 23.73346 -34.36261 40.000305 -24.999313c16.266846 9.3632965 25.067017 49.952866 40.000305 95.22406c14.93335 45.271225 35.999695 95.224075 71.99939 95.224075" fill-rule="evenodd"/><path stroke="#980000" stroke-width="3.0" stroke-linejoin="round" stroke-linecap="butt" d="m544.0 166.55118c0 -12.499649 23.73346 -34.36261 40.000305 -24.999313c16.266846 9.3632965 25.067017 49.952866 40.000305 95.22406c14.93335 45.271225 35.999695 95.224075 71.99939 95.224075" fill-rule="evenodd"/><path fill="#cfe2f3" d="m400.0 286.55118l16.0 0l0 16.0l-16.0 0z" fill-rule="evenodd"/><path stroke="#000000" stroke-width="1.0" stroke-linejoin="round" stroke-linecap="butt" d="m400.0 286.55118l16.0 0l0 16.0l-16.0 0z" fill-rule="evenodd"/><path fill="#cfe2f3" d="m400.0 382.55118l16.0 0l0 16.0l-16.0 0z" fill-rule="evenodd"/><path stroke="#000000" stroke-width="1.0" stroke-linejoin="round" stroke-linecap="butt" d="m400.0 382.55118l16.0 0l0 16.0l-16.0 0z" fill-rule="evenodd"/><path fill="#000000" fill-opacity="0.0" d="m512.0 166.55118c0 -12.4995575 28.533386 -37.56244 48.00006 -24.999115c19.466736 12.563309 29.86676 62.752808 48.000122 119.22397c18.1333 56.47116 43.999878 119.22397 87.99982 119.22397" fill-rule="evenodd"/><path stroke="#980000" stroke-width="3.0" stroke-linejoin="round" stroke-linecap="butt" d="m512.0 166.55118c0 -12.4995575 28.533386 -37.56244 48.00006 -24.999115c19.466736 12.563309 29.86676 62.752808 48.000122 119.22397c18.1333 56.47116 43.999878 119.22397 87.99982 119.22397" fill-rule="evenodd"/><path fill="#cfe2f3" d="m424.0 286.55118l16.0 0l0 16.0l-16.0 0z" fill-rule="evenodd"/><path stroke="#000000" stroke-width="1.0" stroke-linejoin="round" stroke-linecap="butt" d="m424.0 286.55118l16.0 0l0 16.0l-16.0 0z" fill-rule="evenodd"/><path fill="#cfe2f3" d="m440.0 286.55118l16.0 0l0 16.0l-16.0 0z" fill-rule="evenodd"/><path stroke="#000000" stroke-width="1.0" stroke-linejoin="round" stroke-linecap="butt" d="m440.0 286.55118l16.0 0l0 16.0l-16.0 0z" fill-rule="evenodd"/><path fill="#000000" fill-opacity="0.0" d="m576.0 166.55118c0 -12.500259 18.933228 -34.111786 31.999817 -25.000534c13.066528 9.111252 20.266418 48.945267 31.999756 93.334915c11.733398 44.38965 28.000244 93.3349 56.000427 93.3349" fill-rule="evenodd"/><path stroke="#f3f3f3" stroke-width="3.0" stroke-linejoin="round" stroke-linecap="butt" d="m576.0 166.55118c0 -12.500259 18.933228 -34.111786 31.999817 -25.000534c13.066528 9.111252 20.266418 48.945267 31.999756 93.334915c11.733398 44.38965 28.000244 93.3349 56.000427 93.3349" fill-rule="evenodd"/><path fill="#000000" fill-opacity="0.0" d="m696.0 324.22305l8.0 0l0 8.0l-8.0 0z" fill-rule="evenodd"/><path fill="#000000" fill-opacity="0.0" d="m696.0 371.59354l8.0 0l0 8.0l-8.0 0z" fill-rule="evenodd"/><path fill="#000000" fill-opacity="0.0" d="m608.0 166.55118c0 -12.499512 14.13324 -37.26837 23.999817 -24.999008c9.866516 12.269348 15.466431 61.576935 23.999756 117.01918c8.533386 55.44226 20.000244 117.019196 40.000427 117.019196" fill-rule="evenodd"/><path stroke="#f3f3f3" stroke-width="3.0" stroke-linejoin="round" stroke-linecap="butt" d="m608.0 166.55118c0 -12.499512 14.13324 -37.26837 23.999817 -24.999008c9.866516 12.269348 15.466431 61.576935 23.999756 117.01918c8.533386 55.44226 20.000244 117.019196 40.000427 117.019196" fill-rule="evenodd"/><path fill="#000000" fill-opacity="0.0" d="m408.0 286.55118c0 -14.0 58.0 -21.0 116.0 -28.0c58.0 -7.0 116.0 -14.0 116.0 -28.0" fill-rule="evenodd"/><path stroke="#000000" stroke-width="3.0" stroke-linejoin="round" stroke-linecap="butt" d="m408.0 286.55118c0 -14.0 58.0 -21.0 116.0 -28.0c58.0 -7.0 116.0 -14.0 116.0 -28.0" fill-rule="evenodd"/><path fill="#000000" fill-opacity="0.0" d="m392.0 398.55118c0 12.5000305 30.0 46.00009 60.0 25.000092c30.0 -21.0 60.0 -96.50006 60.0 -193.00009" fill-rule="evenodd"/><path stroke="#ff0000" stroke-width="3.0" stroke-linejoin="round" stroke-linecap="butt" d="m392.0 398.55118c0 12.5000305 30.0 46.00009 60.0 25.000092c30.0 -21.0 60.0 -96.50006 60.0 -193.00009" fill-rule="evenodd"/><path fill="#000000" fill-opacity="0.0" d="m408.0 398.55118c0 12.5000305 34.0 46.00009 68.0 25.000092c34.0 -21.0 68.0 -96.50006 68.0 -193.00009" fill-rule="evenodd"/><path stroke="#ff0000" stroke-width="3.0" stroke-linejoin="round" stroke-linecap="butt" d="m408.0 398.55118c0 12.5000305 34.0 46.00009 68.0 25.000092c34.0 -21.0 68.0 -96.50006 68.0 -193.00009" fill-rule="evenodd"/><path fill="#000000" fill-opacity="0.0" d="m432.0 286.55118c0 -14.0 36.0 -21.0 72.0 -28.0c36.0 -7.0 72.0 -14.0 72.0 -28.0" fill-rule="evenodd"/><path stroke="#ffff00" stroke-width="3.0" stroke-linejoin="round" stroke-linecap="butt" d="m432.0 286.55118c0 -14.0 36.0 -21.0 72.0 -28.0c36.0 -7.0 72.0 -14.0 72.0 -28.0" fill-rule="evenodd"/><path fill="#000000" fill-opacity="0.0" d="m448.0 286.55118c0 -14.0 40.0 -21.0 80.0 -28.0c40.0 -7.0 80.0 -14.0 80.0 -28.0" fill-rule="evenodd"/><path stroke="#ffff00" stroke-width="3.0" stroke-linejoin="round" stroke-linecap="butt" d="m448.0 286.55118c0 -14.0 40.0 -21.0 80.0 -28.0c40.0 -7.0 80.0 -14.0 80.0 -28.0" fill-rule="evenodd"/><path fill="#000000" fill-opacity="0.0" d="m176.0 79.986694c0 26.0 52.0 52.0 104.0 52.0" fill-rule="evenodd"/><path stroke="#999999" stroke-width="4.0" stroke-linejoin="round" stroke-linecap="butt" d="m176.0 79.986694c0 26.0 52.0 52.0 104.0 52.0" fill-rule="evenodd"/></g></svg>